<svg width="584" height="476" viewBox="0 0 584 476" fill="none" xmlns="http://www.w3.org/2000/svg">
<g clip-path="url(#clip0_1_761)">
<rect width="584" height="475" transform="translate(0 0.363281)" fill="#E7F6FF"/>
<g filter="url(#filter0_d_1_761)">
<rect x="32" y="32.3633" width="999" height="411" rx="8" fill="#F8F8F8"/>
<path d="M57.408 70.3633V66.2513H56.16V65.2273H57.408V63.9153H56.16V62.8913H57.408V58.9393H59.072L60.592 62.8913H62.48V58.9393H63.744V62.8913H64.992V63.9153H63.744V65.2273H64.992V66.2513H63.744V70.3633H62.064L60.544 66.2513H58.656V70.3633H57.408ZM58.656 65.2273H60.16L59.68 63.9153H58.624L58.656 65.2273ZM62.48 68.1073H62.544L62.496 66.2513H61.824L62.48 68.1073ZM58.624 62.8913H59.296L58.624 60.9073H58.56L58.624 62.8913ZM61.44 65.2273H62.512L62.48 63.9153H60.96L61.44 65.2273ZM66.1163 61.7073C66.1909 60.7259 66.5696 59.9579 67.2523 59.4033C67.9349 58.8486 68.8203 58.5713 69.9083 58.5713C70.6336 58.5713 71.2576 58.7046 71.7803 58.9713C72.3136 59.2273 72.7136 59.5793 72.9803 60.0273C73.2576 60.4753 73.3963 60.9819 73.3963 61.5473C73.3963 62.2086 73.2043 62.7793 72.8203 63.2593C72.4469 63.7393 71.9563 64.0486 71.3483 64.1873V64.2673C72.0416 64.4379 72.5909 64.7739 72.9963 65.2753C73.4016 65.7766 73.6042 66.4326 73.6042 67.2433C73.6042 67.8513 73.4656 68.4006 73.1883 68.8913C72.9109 69.3713 72.4949 69.7499 71.9403 70.0273C71.3856 70.3046 70.7189 70.4433 69.9403 70.4433C68.8096 70.4433 67.8816 70.1499 67.1562 69.5633C66.4309 68.9659 66.0256 68.1233 65.9403 67.0353H67.3483C67.4229 67.6753 67.6843 68.1979 68.1323 68.6033C68.5803 69.0086 69.1776 69.2113 69.9243 69.2113C70.6709 69.2113 71.2363 69.0193 71.6203 68.6353C72.0149 68.2406 72.2123 67.7339 72.2123 67.1153C72.2123 66.3153 71.9456 65.7393 71.4123 65.3873C70.8789 65.0353 70.0736 64.8593 68.9963 64.8593H68.6283V63.6433H69.0123C69.9936 63.6326 70.7349 63.4726 71.2363 63.1633C71.7376 62.8433 71.9883 62.3526 71.9883 61.6913C71.9883 61.1259 71.8016 60.6726 71.4283 60.3313C71.0656 59.9899 70.5429 59.8193 69.8602 59.8193C69.1989 59.8193 68.6656 59.9899 68.2603 60.3313C67.8549 60.6726 67.6149 61.1313 67.5403 61.7073H66.1163ZM77.3141 68.3473L75.5221 72.6513H74.5461L75.7141 68.3473H77.3141ZM78.742 64.4593C78.742 62.6246 79.0407 61.1953 79.638 60.1713C80.2353 59.1366 81.2807 58.6193 82.774 58.6193C84.2567 58.6193 85.2967 59.1366 85.894 60.1713C86.4913 61.1953 86.79 62.6246 86.79 64.4593C86.79 66.3259 86.4913 67.7766 85.894 68.8113C85.2967 69.8459 84.2567 70.3633 82.774 70.3633C81.2807 70.3633 80.2353 69.8459 79.638 68.8113C79.0407 67.7766 78.742 66.3259 78.742 64.4593ZM85.35 64.4593C85.35 63.5313 85.286 62.7473 85.158 62.1073C85.0407 61.4566 84.79 60.9339 84.406 60.5393C84.0327 60.1446 83.4887 59.9473 82.774 59.9473C82.0487 59.9473 81.494 60.1446 81.11 60.5393C80.7367 60.9339 80.486 61.4566 80.358 62.1073C80.2407 62.7473 80.182 63.5313 80.182 64.4593C80.182 65.4193 80.2407 66.2246 80.358 66.8753C80.486 67.5259 80.7367 68.0486 81.11 68.4433C81.494 68.8379 82.0487 69.0353 82.774 69.0353C83.4887 69.0353 84.0327 68.8379 84.406 68.4433C84.79 68.0486 85.0407 67.5259 85.158 66.8753C85.286 66.2246 85.35 65.4193 85.35 64.4593ZM88.7889 64.4593C88.7889 62.6246 89.0875 61.1953 89.6849 60.1713C90.2822 59.1366 91.3275 58.6193 92.8209 58.6193C94.3035 58.6193 95.3435 59.1366 95.9409 60.1713C96.5382 61.1953 96.8369 62.6246 96.8369 64.4593C96.8369 66.3259 96.5382 67.7766 95.9409 68.8113C95.3435 69.8459 94.3035 70.3633 92.8209 70.3633C91.3275 70.3633 90.2822 69.8459 89.6849 68.8113C89.0875 67.7766 88.7889 66.3259 88.7889 64.4593ZM95.3969 64.4593C95.3969 63.5313 95.3329 62.7473 95.2049 62.1073C95.0875 61.4566 94.8369 60.9339 94.4529 60.5393C94.0795 60.1446 93.5355 59.9473 92.8209 59.9473C92.0955 59.9473 91.5409 60.1446 91.1569 60.5393C90.7835 60.9339 90.5329 61.4566 90.4049 62.1073C90.2875 62.7473 90.2289 63.5313 90.2289 64.4593C90.2289 65.4193 90.2875 66.2246 90.4049 66.8753C90.5329 67.5259 90.7835 68.0486 91.1569 68.4433C91.5409 68.8379 92.0955 69.0353 92.8209 69.0353C93.5355 69.0353 94.0795 68.8379 94.4529 68.4433C94.8369 68.0486 95.0875 67.5259 95.2049 66.8753C95.3329 66.2246 95.3969 65.4193 95.3969 64.4593ZM98.8358 64.4593C98.8358 62.6246 99.1344 61.1953 99.7318 60.1713C100.329 59.1366 101.374 58.6193 102.868 58.6193C104.35 58.6193 105.39 59.1366 105.988 60.1713C106.585 61.1953 106.884 62.6246 106.884 64.4593C106.884 66.3259 106.585 67.7766 105.988 68.8113C105.39 69.8459 104.35 70.3633 102.868 70.3633C101.374 70.3633 100.329 69.8459 99.7318 68.8113C99.1344 67.7766 98.8358 66.3259 98.8358 64.4593ZM105.444 64.4593C105.444 63.5313 105.38 62.7473 105.252 62.1073C105.134 61.4566 104.884 60.9339 104.5 60.5393C104.126 60.1446 103.582 59.9473 102.868 59.9473C102.142 59.9473 101.588 60.1446 101.204 60.5393C100.83 60.9339 100.58 61.4566 100.452 62.1073C100.334 62.7473 100.276 63.5313 100.276 64.4593C100.276 65.4193 100.334 66.2246 100.452 66.8753C100.58 67.5259 100.83 68.0486 101.204 68.4433C101.588 68.8379 102.142 69.0353 102.868 69.0353C103.582 69.0353 104.126 68.8379 104.5 68.4433C104.884 68.0486 105.134 67.5259 105.252 66.8753C105.38 66.2246 105.444 65.4193 105.444 64.4593ZM110.627 68.3473L108.835 72.6513H107.859L109.027 68.3473H110.627ZM112.055 64.4593C112.055 62.6246 112.353 61.1953 112.951 60.1713C113.548 59.1366 114.593 58.6193 116.087 58.6193C117.569 58.6193 118.609 59.1366 119.207 60.1713C119.804 61.1953 120.102 62.6246 120.102 64.4593C120.102 66.3259 119.804 67.7766 119.207 68.8113C118.609 69.8459 117.569 70.3633 116.087 70.3633C114.593 70.3633 113.548 69.8459 112.951 68.8113C112.353 67.7766 112.055 66.3259 112.055 64.4593ZM118.663 64.4593C118.663 63.5313 118.599 62.7473 118.471 62.1073C118.353 61.4566 118.103 60.9339 117.719 60.5393C117.345 60.1446 116.801 59.9473 116.087 59.9473C115.361 59.9473 114.807 60.1446 114.423 60.5393C114.049 60.9339 113.799 61.4566 113.671 62.1073C113.553 62.7473 113.495 63.5313 113.495 64.4593C113.495 65.4193 113.553 66.2246 113.671 66.8753C113.799 67.5259 114.049 68.0486 114.423 68.4433C114.807 68.8379 115.361 69.0353 116.087 69.0353C116.801 69.0353 117.345 68.8379 117.719 68.4433C118.103 68.0486 118.353 67.5259 118.471 66.8753C118.599 66.2246 118.663 65.4193 118.663 64.4593ZM122.101 64.4593C122.101 62.6246 122.4 61.1953 122.997 60.1713C123.595 59.1366 124.64 58.6193 126.133 58.6193C127.616 58.6193 128.656 59.1366 129.253 60.1713C129.851 61.1953 130.149 62.6246 130.149 64.4593C130.149 66.3259 129.851 67.7766 129.253 68.8113C128.656 69.8459 127.616 70.3633 126.133 70.3633C124.64 70.3633 123.595 69.8459 122.997 68.8113C122.4 67.7766 122.101 66.3259 122.101 64.4593ZM128.709 64.4593C128.709 63.5313 128.645 62.7473 128.517 62.1073C128.4 61.4566 128.149 60.9339 127.765 60.5393C127.392 60.1446 126.848 59.9473 126.133 59.9473C125.408 59.9473 124.853 60.1446 124.469 60.5393C124.096 60.9339 123.845 61.4566 123.717 62.1073C123.6 62.7473 123.541 63.5313 123.541 64.4593C123.541 65.4193 123.6 66.2246 123.717 66.8753C123.845 67.5259 124.096 68.0486 124.469 68.4433C124.853 68.8379 125.408 69.0353 126.133 69.0353C126.848 69.0353 127.392 68.8379 127.765 68.4433C128.149 68.0486 128.4 67.5259 128.517 66.8753C128.645 66.2246 128.709 65.4193 128.709 64.4593ZM132.148 64.4593C132.148 62.6246 132.447 61.1953 133.044 60.1713C133.642 59.1366 134.687 58.6193 136.18 58.6193C137.663 58.6193 138.703 59.1366 139.3 60.1713C139.898 61.1953 140.196 62.6246 140.196 64.4593C140.196 66.3259 139.898 67.7766 139.3 68.8113C138.703 69.8459 137.663 70.3633 136.18 70.3633C134.687 70.3633 133.642 69.8459 133.044 68.8113C132.447 67.7766 132.148 66.3259 132.148 64.4593ZM138.756 64.4593C138.756 63.5313 138.692 62.7473 138.564 62.1073C138.447 61.4566 138.196 60.9339 137.812 60.5393C137.439 60.1446 136.895 59.9473 136.18 59.9473C135.455 59.9473 134.9 60.1446 134.516 60.5393C134.143 60.9339 133.892 61.4566 133.764 62.1073C133.647 62.7473 133.588 63.5313 133.588 64.4593C133.588 65.4193 133.647 66.2246 133.764 66.8753C133.892 67.5259 134.143 68.0486 134.516 68.4433C134.9 68.8379 135.455 69.0353 136.18 69.0353C136.895 69.0353 137.439 68.8379 137.812 68.4433C138.196 68.0486 138.447 67.5259 138.564 66.8753C138.692 66.2246 138.756 65.4193 138.756 64.4593Z" fill="#2E2E32"/>
<path d="M58.408 120.363V116.251H57.16V115.227H58.408V113.915H57.16V112.891H58.408V108.939H60.072L61.592 112.891H63.48V108.939H64.744V112.891H65.992V113.915H64.744V115.227H65.992V116.251H64.744V120.363H63.064L61.544 116.251H59.656V120.363H58.408ZM59.656 115.227H61.16L60.68 113.915H59.624L59.656 115.227ZM63.48 118.107H63.544L63.496 116.251H62.824L63.48 118.107ZM59.624 112.891H60.296L59.624 110.907H59.56L59.624 112.891ZM62.44 115.227H63.512L63.48 113.915H61.96L62.44 115.227ZM66.9723 119.195C68.3269 118.107 69.3883 117.217 70.1562 116.523C70.9243 115.819 71.5696 115.089 72.0923 114.331C72.6256 113.563 72.8923 112.811 72.8923 112.075C72.8923 111.382 72.7216 110.838 72.3803 110.443C72.0496 110.038 71.5109 109.835 70.7643 109.835C70.0389 109.835 69.4736 110.065 69.0683 110.523C68.6736 110.971 68.4603 111.574 68.4283 112.331H67.0203C67.0629 111.137 67.4256 110.214 68.1083 109.563C68.7909 108.913 69.6709 108.587 70.7483 108.587C71.8469 108.587 72.7163 108.891 73.3563 109.499C74.0069 110.107 74.3323 110.945 74.3323 112.011C74.3323 112.897 74.0656 113.761 73.5323 114.603C73.0096 115.435 72.4123 116.171 71.7403 116.811C71.0683 117.441 70.2096 118.177 69.1643 119.019H74.6683V120.235H66.9723V119.195ZM78.0954 118.347L76.3034 122.651H75.3274L76.4954 118.347H78.0954ZM86.8993 110.059H81.2833V113.707C81.5286 113.366 81.8913 113.089 82.3713 112.875C82.8513 112.651 83.3686 112.539 83.9233 112.539C84.8086 112.539 85.5286 112.726 86.0833 113.099C86.6379 113.462 87.0326 113.937 87.2673 114.523C87.5126 115.099 87.6353 115.713 87.6353 116.363C87.6353 117.131 87.4913 117.819 87.2033 118.427C86.9153 119.035 86.4726 119.515 85.8753 119.867C85.2886 120.219 84.5579 120.395 83.6833 120.395C82.5633 120.395 81.6566 120.107 80.9633 119.531C80.2699 118.955 79.8486 118.187 79.6993 117.227H81.1233C81.2619 117.835 81.5553 118.31 82.0033 118.651C82.4513 118.993 83.0166 119.163 83.6993 119.163C84.5419 119.163 85.1766 118.913 85.6033 118.411C86.0299 117.899 86.2433 117.227 86.2433 116.395C86.2433 115.563 86.0299 114.923 85.6033 114.475C85.1766 114.017 84.5473 113.787 83.7153 113.787C83.1499 113.787 82.6539 113.926 82.2273 114.203C81.8113 114.47 81.5073 114.838 81.3153 115.307H79.9393V108.779H86.8993V110.059ZM89.5701 114.459C89.5701 112.625 89.8688 111.195 90.4661 110.171C91.0635 109.137 92.1088 108.619 93.6021 108.619C95.0848 108.619 96.1248 109.137 96.7221 110.171C97.3195 111.195 97.6181 112.625 97.6181 114.459C97.6181 116.326 97.3195 117.777 96.7221 118.811C96.1248 119.846 95.0848 120.363 93.6021 120.363C92.1088 120.363 91.0635 119.846 90.4661 118.811C89.8688 117.777 89.5701 116.326 89.5701 114.459ZM96.1781 114.459C96.1781 113.531 96.1141 112.747 95.9861 112.107C95.8688 111.457 95.6181 110.934 95.2341 110.539C94.8608 110.145 94.3168 109.947 93.6021 109.947C92.8768 109.947 92.3221 110.145 91.9381 110.539C91.5648 110.934 91.3141 111.457 91.1861 112.107C91.0688 112.747 91.0101 113.531 91.0101 114.459C91.0101 115.419 91.0688 116.225 91.1861 116.875C91.3141 117.526 91.5648 118.049 91.9381 118.443C92.3221 118.838 92.8768 119.035 93.6021 119.035C94.3168 119.035 94.8608 118.838 95.2341 118.443C95.6181 118.049 95.8688 117.526 95.9861 116.875C96.1141 116.225 96.1781 115.419 96.1781 114.459ZM99.617 114.459C99.617 112.625 99.9157 111.195 100.513 110.171C101.11 109.137 102.156 108.619 103.649 108.619C105.132 108.619 106.172 109.137 106.769 110.171C107.366 111.195 107.665 112.625 107.665 114.459C107.665 116.326 107.366 117.777 106.769 118.811C106.172 119.846 105.132 120.363 103.649 120.363C102.156 120.363 101.11 119.846 100.513 118.811C99.9157 117.777 99.617 116.326 99.617 114.459ZM106.225 114.459C106.225 113.531 106.161 112.747 106.033 112.107C105.916 111.457 105.665 110.934 105.281 110.539C104.908 110.145 104.364 109.947 103.649 109.947C102.924 109.947 102.369 110.145 101.985 110.539C101.612 110.934 101.361 111.457 101.233 112.107C101.116 112.747 101.057 113.531 101.057 114.459C101.057 115.419 101.116 116.225 101.233 116.875C101.361 117.526 101.612 118.049 101.985 118.443C102.369 118.838 102.924 119.035 103.649 119.035C104.364 119.035 104.908 118.838 105.281 118.443C105.665 118.049 105.916 117.526 106.033 116.875C106.161 116.225 106.225 115.419 106.225 114.459ZM111.408 118.347L109.616 122.651H108.64L109.808 118.347H111.408ZM112.836 114.459C112.836 112.625 113.134 111.195 113.732 110.171C114.329 109.137 115.374 108.619 116.868 108.619C118.35 108.619 119.39 109.137 119.988 110.171C120.585 111.195 120.884 112.625 120.884 114.459C120.884 116.326 120.585 117.777 119.988 118.811C119.39 119.846 118.35 120.363 116.868 120.363C115.374 120.363 114.329 119.846 113.732 118.811C113.134 117.777 112.836 116.326 112.836 114.459ZM119.444 114.459C119.444 113.531 119.38 112.747 119.252 112.107C119.134 111.457 118.884 110.934 118.5 110.539C118.126 110.145 117.582 109.947 116.868 109.947C116.142 109.947 115.588 110.145 115.204 110.539C114.83 110.934 114.58 111.457 114.452 112.107C114.334 112.747 114.276 113.531 114.276 114.459C114.276 115.419 114.334 116.225 114.452 116.875C114.58 117.526 114.83 118.049 115.204 118.443C115.588 118.838 116.142 119.035 116.868 119.035C117.582 119.035 118.126 118.838 118.5 118.443C118.884 118.049 119.134 117.526 119.252 116.875C119.38 116.225 119.444 115.419 119.444 114.459ZM122.883 114.459C122.883 112.625 123.181 111.195 123.779 110.171C124.376 109.137 125.421 108.619 126.915 108.619C128.397 108.619 129.437 109.137 130.035 110.171C130.632 111.195 130.931 112.625 130.931 114.459C130.931 116.326 130.632 117.777 130.035 118.811C129.437 119.846 128.397 120.363 126.915 120.363C125.421 120.363 124.376 119.846 123.779 118.811C123.181 117.777 122.883 116.326 122.883 114.459ZM129.491 114.459C129.491 113.531 129.427 112.747 129.299 112.107C129.181 111.457 128.931 110.934 128.547 110.539C128.173 110.145 127.629 109.947 126.915 109.947C126.189 109.947 125.635 110.145 125.251 110.539C124.877 110.934 124.627 111.457 124.499 112.107C124.381 112.747 124.323 113.531 124.323 114.459C124.323 115.419 124.381 116.225 124.499 116.875C124.627 117.526 124.877 118.049 125.251 118.443C125.635 118.838 126.189 119.035 126.915 119.035C127.629 119.035 128.173 118.838 128.547 118.443C128.931 118.049 129.181 117.526 129.299 116.875C129.427 116.225 129.491 115.419 129.491 114.459ZM132.93 114.459C132.93 112.625 133.228 111.195 133.826 110.171C134.423 109.137 135.468 108.619 136.962 108.619C138.444 108.619 139.484 109.137 140.082 110.171C140.679 111.195 140.977 112.625 140.977 114.459C140.977 116.326 140.679 117.777 140.082 118.811C139.484 119.846 138.444 120.363 136.962 120.363C135.468 120.363 134.423 119.846 133.826 118.811C133.228 117.777 132.93 116.326 132.93 114.459ZM139.538 114.459C139.538 113.531 139.474 112.747 139.346 112.107C139.228 111.457 138.978 110.934 138.594 110.539C138.22 110.145 137.676 109.947 136.962 109.947C136.236 109.947 135.682 110.145 135.298 110.539C134.924 110.934 134.674 111.457 134.546 112.107C134.428 112.747 134.37 113.531 134.37 114.459C134.37 115.419 134.428 116.225 134.546 116.875C134.674 117.526 134.924 118.049 135.298 118.443C135.682 118.838 136.236 119.035 136.962 119.035C137.676 119.035 138.22 118.838 138.594 118.443C138.978 118.049 139.228 117.526 139.346 116.875C139.474 116.225 139.538 115.419 139.538 114.459Z" fill="#2E2E32"/>
<path d="M58.408 170.363V166.251H57.16V165.227H58.408V163.915H57.16V162.891H58.408V158.939H60.072L61.592 162.891H63.48V158.939H64.744V162.891H65.992V163.915H64.744V165.227H65.992V166.251H64.744V170.363H63.064L61.544 166.251H59.656V170.363H58.408ZM59.656 165.227H61.16L60.68 163.915H59.624L59.656 165.227ZM63.48 168.107H63.544L63.496 166.251H62.824L63.48 168.107ZM59.624 162.891H60.296L59.624 160.907H59.56L59.624 162.891ZM62.44 165.227H63.512L63.48 163.915H61.96L62.44 165.227ZM66.9723 169.195C68.3269 168.107 69.3883 167.217 70.1562 166.523C70.9243 165.819 71.5696 165.089 72.0923 164.331C72.6256 163.563 72.8923 162.811 72.8923 162.075C72.8923 161.382 72.7216 160.838 72.3803 160.443C72.0496 160.038 71.5109 159.835 70.7643 159.835C70.0389 159.835 69.4736 160.065 69.0683 160.523C68.6736 160.971 68.4603 161.574 68.4283 162.331H67.0203C67.0629 161.137 67.4256 160.214 68.1083 159.563C68.7909 158.913 69.6709 158.587 70.7483 158.587C71.8469 158.587 72.7163 158.891 73.3563 159.499C74.0069 160.107 74.3323 160.945 74.3323 162.011C74.3323 162.897 74.0656 163.761 73.5323 164.603C73.0096 165.435 72.4123 166.171 71.7403 166.811C71.0683 167.441 70.2096 168.177 69.1643 169.019H74.6683V170.235H66.9723V169.195ZM78.0954 168.347L76.3034 172.651H75.3274L76.4954 168.347H78.0954ZM79.5233 164.459C79.5233 162.625 79.8219 161.195 80.4193 160.171C81.0166 159.137 82.0619 158.619 83.5553 158.619C85.0379 158.619 86.0779 159.137 86.6753 160.171C87.2726 161.195 87.5712 162.625 87.5712 164.459C87.5712 166.326 87.2726 167.777 86.6753 168.811C86.0779 169.846 85.0379 170.363 83.5553 170.363C82.0619 170.363 81.0166 169.846 80.4193 168.811C79.8219 167.777 79.5233 166.326 79.5233 164.459ZM86.1313 164.459C86.1313 163.531 86.0673 162.747 85.9393 162.107C85.8219 161.457 85.5713 160.934 85.1873 160.539C84.8139 160.145 84.2699 159.947 83.5553 159.947C82.8299 159.947 82.2753 160.145 81.8913 160.539C81.5179 160.934 81.2673 161.457 81.1393 162.107C81.0219 162.747 80.9633 163.531 80.9633 164.459C80.9633 165.419 81.0219 166.225 81.1393 166.875C81.2673 167.526 81.5179 168.049 81.8913 168.443C82.2753 168.838 82.8299 169.035 83.5553 169.035C84.2699 169.035 84.8139 168.838 85.1873 168.443C85.5713 168.049 85.8219 167.526 85.9393 166.875C86.0673 166.225 86.1313 165.419 86.1313 164.459ZM89.5701 164.459C89.5701 162.625 89.8688 161.195 90.4661 160.171C91.0635 159.137 92.1088 158.619 93.6021 158.619C95.0848 158.619 96.1248 159.137 96.7221 160.171C97.3195 161.195 97.6181 162.625 97.6181 164.459C97.6181 166.326 97.3195 167.777 96.7221 168.811C96.1248 169.846 95.0848 170.363 93.6021 170.363C92.1088 170.363 91.0635 169.846 90.4661 168.811C89.8688 167.777 89.5701 166.326 89.5701 164.459ZM96.1781 164.459C96.1781 163.531 96.1141 162.747 95.9861 162.107C95.8688 161.457 95.6181 160.934 95.2341 160.539C94.8608 160.145 94.3168 159.947 93.6021 159.947C92.8768 159.947 92.3221 160.145 91.9381 160.539C91.5648 160.934 91.3141 161.457 91.1861 162.107C91.0688 162.747 91.0101 163.531 91.0101 164.459C91.0101 165.419 91.0688 166.225 91.1861 166.875C91.3141 167.526 91.5648 168.049 91.9381 168.443C92.3221 168.838 92.8768 169.035 93.6021 169.035C94.3168 169.035 94.8608 168.838 95.2341 168.443C95.6181 168.049 95.8688 167.526 95.9861 166.875C96.1141 166.225 96.1781 165.419 96.1781 164.459ZM99.617 164.459C99.617 162.625 99.9157 161.195 100.513 160.171C101.11 159.137 102.156 158.619 103.649 158.619C105.132 158.619 106.172 159.137 106.769 160.171C107.366 161.195 107.665 162.625 107.665 164.459C107.665 166.326 107.366 167.777 106.769 168.811C106.172 169.846 105.132 170.363 103.649 170.363C102.156 170.363 101.11 169.846 100.513 168.811C99.9157 167.777 99.617 166.326 99.617 164.459ZM106.225 164.459C106.225 163.531 106.161 162.747 106.033 162.107C105.916 161.457 105.665 160.934 105.281 160.539C104.908 160.145 104.364 159.947 103.649 159.947C102.924 159.947 102.369 160.145 101.985 160.539C101.612 160.934 101.361 161.457 101.233 162.107C101.116 162.747 101.057 163.531 101.057 164.459C101.057 165.419 101.116 166.225 101.233 166.875C101.361 167.526 101.612 168.049 101.985 168.443C102.369 168.838 102.924 169.035 103.649 169.035C104.364 169.035 104.908 168.838 105.281 168.443C105.665 168.049 105.916 167.526 106.033 166.875C106.161 166.225 106.225 165.419 106.225 164.459ZM111.408 168.347L109.616 172.651H108.64L109.808 168.347H111.408ZM112.836 164.459C112.836 162.625 113.134 161.195 113.732 160.171C114.329 159.137 115.374 158.619 116.868 158.619C118.35 158.619 119.39 159.137 119.988 160.171C120.585 161.195 120.884 162.625 120.884 164.459C120.884 166.326 120.585 167.777 119.988 168.811C119.39 169.846 118.35 170.363 116.868 170.363C115.374 170.363 114.329 169.846 113.732 168.811C113.134 167.777 112.836 166.326 112.836 164.459ZM119.444 164.459C119.444 163.531 119.38 162.747 119.252 162.107C119.134 161.457 118.884 160.934 118.5 160.539C118.126 160.145 117.582 159.947 116.868 159.947C116.142 159.947 115.588 160.145 115.204 160.539C114.83 160.934 114.58 161.457 114.452 162.107C114.334 162.747 114.276 163.531 114.276 164.459C114.276 165.419 114.334 166.225 114.452 166.875C114.58 167.526 114.83 168.049 115.204 168.443C115.588 168.838 116.142 169.035 116.868 169.035C117.582 169.035 118.126 168.838 118.5 168.443C118.884 168.049 119.134 167.526 119.252 166.875C119.38 166.225 119.444 165.419 119.444 164.459ZM122.883 164.459C122.883 162.625 123.181 161.195 123.779 160.171C124.376 159.137 125.421 158.619 126.915 158.619C128.397 158.619 129.437 159.137 130.035 160.171C130.632 161.195 130.931 162.625 130.931 164.459C130.931 166.326 130.632 167.777 130.035 168.811C129.437 169.846 128.397 170.363 126.915 170.363C125.421 170.363 124.376 169.846 123.779 168.811C123.181 167.777 122.883 166.326 122.883 164.459ZM129.491 164.459C129.491 163.531 129.427 162.747 129.299 162.107C129.181 161.457 128.931 160.934 128.547 160.539C128.173 160.145 127.629 159.947 126.915 159.947C126.189 159.947 125.635 160.145 125.251 160.539C124.877 160.934 124.627 161.457 124.499 162.107C124.381 162.747 124.323 163.531 124.323 164.459C124.323 165.419 124.381 166.225 124.499 166.875C124.627 167.526 124.877 168.049 125.251 168.443C125.635 168.838 126.189 169.035 126.915 169.035C127.629 169.035 128.173 168.838 128.547 168.443C128.931 168.049 129.181 167.526 129.299 166.875C129.427 166.225 129.491 165.419 129.491 164.459ZM132.93 164.459C132.93 162.625 133.228 161.195 133.826 160.171C134.423 159.137 135.468 158.619 136.962 158.619C138.444 158.619 139.484 159.137 140.082 160.171C140.679 161.195 140.977 162.625 140.977 164.459C140.977 166.326 140.679 167.777 140.082 168.811C139.484 169.846 138.444 170.363 136.962 170.363C135.468 170.363 134.423 169.846 133.826 168.811C133.228 167.777 132.93 166.326 132.93 164.459ZM139.538 164.459C139.538 163.531 139.474 162.747 139.346 162.107C139.228 161.457 138.978 160.934 138.594 160.539C138.22 160.145 137.676 159.947 136.962 159.947C136.236 159.947 135.682 160.145 135.298 160.539C134.924 160.934 134.674 161.457 134.546 162.107C134.428 162.747 134.37 163.531 134.37 164.459C134.37 165.419 134.428 166.225 134.546 166.875C134.674 167.526 134.924 168.049 135.298 168.443C135.682 168.838 136.236 169.035 136.962 169.035C137.676 169.035 138.22 168.838 138.594 168.443C138.978 168.049 139.228 167.526 139.346 166.875C139.474 166.225 139.538 165.419 139.538 164.459Z" fill="#2E2E32"/>
<path d="M62.408 220.363V216.251H61.16V215.227H62.408V213.915H61.16V212.891H62.408V208.939H64.072L65.592 212.891H67.48V208.939H68.744V212.891H69.992V213.915H68.744V215.227H69.992V216.251H68.744V220.363H67.064L65.544 216.251H63.656V220.363H62.408ZM63.656 215.227H65.16L64.68 213.915H63.624L63.656 215.227ZM67.48 218.107H67.544L67.496 216.251H66.824L67.48 218.107ZM63.624 212.891H64.296L63.624 210.907H63.56L63.624 212.891ZM66.44 215.227H67.512L67.48 213.915H65.96L66.44 215.227ZM70.7643 210.123V208.795H73.7723V220.363H72.3003V210.123H70.7643ZM78.0173 218.347L76.2253 222.651H75.2492L76.4173 218.347H78.0173ZM86.8211 210.059H81.2051V213.707C81.4505 213.366 81.8131 213.089 82.2931 212.875C82.7731 212.651 83.2905 212.539 83.8451 212.539C84.7305 212.539 85.4505 212.726 86.0051 213.099C86.5598 213.462 86.9545 213.937 87.1891 214.523C87.4345 215.099 87.5571 215.713 87.5571 216.363C87.5571 217.131 87.4131 217.819 87.1251 218.427C86.8371 219.035 86.3945 219.515 85.7971 219.867C85.2105 220.219 84.4798 220.395 83.6051 220.395C82.4851 220.395 81.5785 220.107 80.8851 219.531C80.1918 218.955 79.7705 218.187 79.6211 217.227H81.0451C81.1838 217.835 81.4771 218.31 81.9251 218.651C82.3731 218.993 82.9385 219.163 83.6211 219.163C84.4638 219.163 85.0985 218.913 85.5251 218.411C85.9518 217.899 86.1651 217.227 86.1651 216.395C86.1651 215.563 85.9518 214.923 85.5251 214.475C85.0985 214.017 84.4691 213.787 83.6371 213.787C83.0718 213.787 82.5758 213.926 82.1491 214.203C81.7331 214.47 81.4291 214.838 81.2371 215.307H79.8611V208.779H86.8211V210.059ZM89.492 214.459C89.492 212.625 89.7907 211.195 90.388 210.171C90.9853 209.137 92.0307 208.619 93.524 208.619C95.0067 208.619 96.0467 209.137 96.644 210.171C97.2413 211.195 97.54 212.625 97.54 214.459C97.54 216.326 97.2413 217.777 96.644 218.811C96.0467 219.846 95.0067 220.363 93.524 220.363C92.0307 220.363 90.9853 219.846 90.388 218.811C89.7907 217.777 89.492 216.326 89.492 214.459ZM96.1 214.459C96.1 213.531 96.036 212.747 95.908 212.107C95.7907 211.457 95.54 210.934 95.156 210.539C94.7827 210.145 94.2387 209.947 93.524 209.947C92.7987 209.947 92.244 210.145 91.86 210.539C91.4867 210.934 91.236 211.457 91.108 212.107C90.9907 212.747 90.932 213.531 90.932 214.459C90.932 215.419 90.9907 216.225 91.108 216.875C91.236 217.526 91.4867 218.049 91.86 218.443C92.244 218.838 92.7987 219.035 93.524 219.035C94.2387 219.035 94.7827 218.838 95.156 218.443C95.54 218.049 95.7907 217.526 95.908 216.875C96.036 216.225 96.1 215.419 96.1 214.459ZM99.5389 214.459C99.5389 212.625 99.8375 211.195 100.435 210.171C101.032 209.137 102.078 208.619 103.571 208.619C105.054 208.619 106.094 209.137 106.691 210.171C107.288 211.195 107.587 212.625 107.587 214.459C107.587 216.326 107.288 217.777 106.691 218.811C106.094 219.846 105.054 220.363 103.571 220.363C102.078 220.363 101.032 219.846 100.435 218.811C99.8375 217.777 99.5389 216.326 99.5389 214.459ZM106.147 214.459C106.147 213.531 106.083 212.747 105.955 212.107C105.838 211.457 105.587 210.934 105.203 210.539C104.83 210.145 104.286 209.947 103.571 209.947C102.846 209.947 102.291 210.145 101.907 210.539C101.534 210.934 101.283 211.457 101.155 212.107C101.038 212.747 100.979 213.531 100.979 214.459C100.979 215.419 101.038 216.225 101.155 216.875C101.283 217.526 101.534 218.049 101.907 218.443C102.291 218.838 102.846 219.035 103.571 219.035C104.286 219.035 104.83 218.838 105.203 218.443C105.587 218.049 105.838 217.526 105.955 216.875C106.083 216.225 106.147 215.419 106.147 214.459ZM111.33 218.347L109.538 222.651H108.562L109.73 218.347H111.33ZM112.758 214.459C112.758 212.625 113.056 211.195 113.654 210.171C114.251 209.137 115.296 208.619 116.79 208.619C118.272 208.619 119.312 209.137 119.91 210.171C120.507 211.195 120.806 212.625 120.806 214.459C120.806 216.326 120.507 217.777 119.91 218.811C119.312 219.846 118.272 220.363 116.79 220.363C115.296 220.363 114.251 219.846 113.654 218.811C113.056 217.777 112.758 216.326 112.758 214.459ZM119.366 214.459C119.366 213.531 119.302 212.747 119.174 212.107C119.056 211.457 118.806 210.934 118.422 210.539C118.048 210.145 117.504 209.947 116.79 209.947C116.064 209.947 115.51 210.145 115.126 210.539C114.752 210.934 114.502 211.457 114.374 212.107C114.256 212.747 114.198 213.531 114.198 214.459C114.198 215.419 114.256 216.225 114.374 216.875C114.502 217.526 114.752 218.049 115.126 218.443C115.51 218.838 116.064 219.035 116.79 219.035C117.504 219.035 118.048 218.838 118.422 218.443C118.806 218.049 119.056 217.526 119.174 216.875C119.302 216.225 119.366 215.419 119.366 214.459ZM122.805 214.459C122.805 212.625 123.103 211.195 123.701 210.171C124.298 209.137 125.343 208.619 126.837 208.619C128.319 208.619 129.359 209.137 129.957 210.171C130.554 211.195 130.852 212.625 130.852 214.459C130.852 216.326 130.554 217.777 129.957 218.811C129.359 219.846 128.319 220.363 126.837 220.363C125.343 220.363 124.298 219.846 123.701 218.811C123.103 217.777 122.805 216.326 122.805 214.459ZM129.413 214.459C129.413 213.531 129.349 212.747 129.221 212.107C129.103 211.457 128.853 210.934 128.469 210.539C128.095 210.145 127.551 209.947 126.837 209.947C126.111 209.947 125.557 210.145 125.173 210.539C124.799 210.934 124.549 211.457 124.421 212.107C124.303 212.747 124.245 213.531 124.245 214.459C124.245 215.419 124.303 216.225 124.421 216.875C124.549 217.526 124.799 218.049 125.173 218.443C125.557 218.838 126.111 219.035 126.837 219.035C127.551 219.035 128.095 218.838 128.469 218.443C128.853 218.049 129.103 217.526 129.221 216.875C129.349 216.225 129.413 215.419 129.413 214.459ZM132.851 214.459C132.851 212.625 133.15 211.195 133.747 210.171C134.345 209.137 135.39 208.619 136.883 208.619C138.366 208.619 139.406 209.137 140.003 210.171C140.601 211.195 140.899 212.625 140.899 214.459C140.899 216.326 140.601 217.777 140.003 218.811C139.406 219.846 138.366 220.363 136.883 220.363C135.39 220.363 134.345 219.846 133.747 218.811C133.15 217.777 132.851 216.326 132.851 214.459ZM139.459 214.459C139.459 213.531 139.395 212.747 139.267 212.107C139.15 211.457 138.899 210.934 138.515 210.539C138.142 210.145 137.598 209.947 136.883 209.947C136.158 209.947 135.603 210.145 135.219 210.539C134.846 210.934 134.595 211.457 134.467 212.107C134.35 212.747 134.291 213.531 134.291 214.459C134.291 215.419 134.35 216.225 134.467 216.875C134.595 217.526 134.846 218.049 135.219 218.443C135.603 218.838 136.158 219.035 136.883 219.035C137.598 219.035 138.142 218.838 138.515 218.443C138.899 218.049 139.15 217.526 139.267 216.875C139.395 216.225 139.459 215.419 139.459 214.459Z" fill="#2E2E32"/>
<path d="M62.408 270.363V266.251H61.16V265.227H62.408V263.915H61.16V262.891H62.408V258.939H64.072L65.592 262.891H67.48V258.939H68.744V262.891H69.992V263.915H68.744V265.227H69.992V266.251H68.744V270.363H67.064L65.544 266.251H63.656V270.363H62.408ZM63.656 265.227H65.16L64.68 263.915H63.624L63.656 265.227ZM67.48 268.107H67.544L67.496 266.251H66.824L67.48 268.107ZM63.624 262.891H64.296L63.624 260.907H63.56L63.624 262.891ZM66.44 265.227H67.512L67.48 263.915H65.96L66.44 265.227ZM70.7643 260.123V258.795H73.7723V270.363H72.3003V260.123H70.7643ZM78.0173 268.347L76.2253 272.651H75.2492L76.4173 268.347H78.0173ZM79.4451 264.459C79.4451 262.625 79.7438 261.195 80.3411 260.171C80.9385 259.137 81.9838 258.619 83.4771 258.619C84.9598 258.619 85.9998 259.137 86.5971 260.171C87.1945 261.195 87.4931 262.625 87.4931 264.459C87.4931 266.326 87.1945 267.777 86.5971 268.811C85.9998 269.846 84.9598 270.363 83.4771 270.363C81.9838 270.363 80.9385 269.846 80.3411 268.811C79.7438 267.777 79.4451 266.326 79.4451 264.459ZM86.0531 264.459C86.0531 263.531 85.9891 262.747 85.8611 262.107C85.7438 261.457 85.4931 260.934 85.1091 260.539C84.7358 260.145 84.1918 259.947 83.4771 259.947C82.7518 259.947 82.1971 260.145 81.8131 260.539C81.4398 260.934 81.1891 261.457 81.0611 262.107C80.9438 262.747 80.8851 263.531 80.8851 264.459C80.8851 265.419 80.9438 266.225 81.0611 266.875C81.1891 267.526 81.4398 268.049 81.8131 268.443C82.1971 268.838 82.7518 269.035 83.4771 269.035C84.1918 269.035 84.7358 268.838 85.1091 268.443C85.4931 268.049 85.7438 267.526 85.8611 266.875C85.9891 266.225 86.0531 265.419 86.0531 264.459ZM89.492 264.459C89.492 262.625 89.7907 261.195 90.388 260.171C90.9853 259.137 92.0307 258.619 93.524 258.619C95.0067 258.619 96.0467 259.137 96.644 260.171C97.2413 261.195 97.54 262.625 97.54 264.459C97.54 266.326 97.2413 267.777 96.644 268.811C96.0467 269.846 95.0067 270.363 93.524 270.363C92.0307 270.363 90.9853 269.846 90.388 268.811C89.7907 267.777 89.492 266.326 89.492 264.459ZM96.1 264.459C96.1 263.531 96.036 262.747 95.908 262.107C95.7907 261.457 95.54 260.934 95.156 260.539C94.7827 260.145 94.2387 259.947 93.524 259.947C92.7987 259.947 92.244 260.145 91.86 260.539C91.4867 260.934 91.236 261.457 91.108 262.107C90.9907 262.747 90.932 263.531 90.932 264.459C90.932 265.419 90.9907 266.225 91.108 266.875C91.236 267.526 91.4867 268.049 91.86 268.443C92.244 268.838 92.7987 269.035 93.524 269.035C94.2387 269.035 94.7827 268.838 95.156 268.443C95.54 268.049 95.7907 267.526 95.908 266.875C96.036 266.225 96.1 265.419 96.1 264.459ZM99.5389 264.459C99.5389 262.625 99.8375 261.195 100.435 260.171C101.032 259.137 102.078 258.619 103.571 258.619C105.054 258.619 106.094 259.137 106.691 260.171C107.288 261.195 107.587 262.625 107.587 264.459C107.587 266.326 107.288 267.777 106.691 268.811C106.094 269.846 105.054 270.363 103.571 270.363C102.078 270.363 101.032 269.846 100.435 268.811C99.8375 267.777 99.5389 266.326 99.5389 264.459ZM106.147 264.459C106.147 263.531 106.083 262.747 105.955 262.107C105.838 261.457 105.587 260.934 105.203 260.539C104.83 260.145 104.286 259.947 103.571 259.947C102.846 259.947 102.291 260.145 101.907 260.539C101.534 260.934 101.283 261.457 101.155 262.107C101.038 262.747 100.979 263.531 100.979 264.459C100.979 265.419 101.038 266.225 101.155 266.875C101.283 267.526 101.534 268.049 101.907 268.443C102.291 268.838 102.846 269.035 103.571 269.035C104.286 269.035 104.83 268.838 105.203 268.443C105.587 268.049 105.838 267.526 105.955 266.875C106.083 266.225 106.147 265.419 106.147 264.459ZM111.33 268.347L109.538 272.651H108.562L109.73 268.347H111.33ZM112.758 264.459C112.758 262.625 113.056 261.195 113.654 260.171C114.251 259.137 115.296 258.619 116.79 258.619C118.272 258.619 119.312 259.137 119.91 260.171C120.507 261.195 120.806 262.625 120.806 264.459C120.806 266.326 120.507 267.777 119.91 268.811C119.312 269.846 118.272 270.363 116.79 270.363C115.296 270.363 114.251 269.846 113.654 268.811C113.056 267.777 112.758 266.326 112.758 264.459ZM119.366 264.459C119.366 263.531 119.302 262.747 119.174 262.107C119.056 261.457 118.806 260.934 118.422 260.539C118.048 260.145 117.504 259.947 116.79 259.947C116.064 259.947 115.51 260.145 115.126 260.539C114.752 260.934 114.502 261.457 114.374 262.107C114.256 262.747 114.198 263.531 114.198 264.459C114.198 265.419 114.256 266.225 114.374 266.875C114.502 267.526 114.752 268.049 115.126 268.443C115.51 268.838 116.064 269.035 116.79 269.035C117.504 269.035 118.048 268.838 118.422 268.443C118.806 268.049 119.056 267.526 119.174 266.875C119.302 266.225 119.366 265.419 119.366 264.459ZM122.805 264.459C122.805 262.625 123.103 261.195 123.701 260.171C124.298 259.137 125.343 258.619 126.837 258.619C128.319 258.619 129.359 259.137 129.957 260.171C130.554 261.195 130.852 262.625 130.852 264.459C130.852 266.326 130.554 267.777 129.957 268.811C129.359 269.846 128.319 270.363 126.837 270.363C125.343 270.363 124.298 269.846 123.701 268.811C123.103 267.777 122.805 266.326 122.805 264.459ZM129.413 264.459C129.413 263.531 129.349 262.747 129.221 262.107C129.103 261.457 128.853 260.934 128.469 260.539C128.095 260.145 127.551 259.947 126.837 259.947C126.111 259.947 125.557 260.145 125.173 260.539C124.799 260.934 124.549 261.457 124.421 262.107C124.303 262.747 124.245 263.531 124.245 264.459C124.245 265.419 124.303 266.225 124.421 266.875C124.549 267.526 124.799 268.049 125.173 268.443C125.557 268.838 126.111 269.035 126.837 269.035C127.551 269.035 128.095 268.838 128.469 268.443C128.853 268.049 129.103 267.526 129.221 266.875C129.349 266.225 129.413 265.419 129.413 264.459ZM132.851 264.459C132.851 262.625 133.15 261.195 133.747 260.171C134.345 259.137 135.39 258.619 136.883 258.619C138.366 258.619 139.406 259.137 140.003 260.171C140.601 261.195 140.899 262.625 140.899 264.459C140.899 266.326 140.601 267.777 140.003 268.811C139.406 269.846 138.366 270.363 136.883 270.363C135.39 270.363 134.345 269.846 133.747 268.811C133.15 267.777 132.851 266.326 132.851 264.459ZM139.459 264.459C139.459 263.531 139.395 262.747 139.267 262.107C139.15 261.457 138.899 260.934 138.515 260.539C138.142 260.145 137.598 259.947 136.883 259.947C136.158 259.947 135.603 260.145 135.219 260.539C134.846 260.934 134.595 261.457 134.467 262.107C134.35 262.747 134.291 263.531 134.291 264.459C134.291 265.419 134.35 266.225 134.467 266.875C134.595 267.526 134.846 268.049 135.219 268.443C135.603 268.838 136.158 269.035 136.883 269.035C137.598 269.035 138.142 268.838 138.515 268.443C138.899 268.049 139.15 267.526 139.267 266.875C139.395 266.225 139.459 265.419 139.459 264.459Z" fill="#2E2E32"/>
<path d="M70.408 320.363V316.251H69.16V315.227H70.408V313.915H69.16V312.891H70.408V308.939H72.072L73.592 312.891H75.48V308.939H76.744V312.891H77.992V313.915H76.744V315.227H77.992V316.251H76.744V320.363H75.064L73.544 316.251H71.656V320.363H70.408ZM71.656 315.227H73.16L72.68 313.915H71.624L71.656 315.227ZM75.48 318.107H75.544L75.496 316.251H74.824L75.48 318.107ZM71.624 312.891H72.296L71.624 310.907H71.56L71.624 312.891ZM74.44 315.227H75.512L75.48 313.915H73.96L74.44 315.227ZM86.5243 310.059H80.9083V313.707C81.1536 313.366 81.5163 313.089 81.9963 312.875C82.4763 312.651 82.9936 312.539 83.5483 312.539C84.4336 312.539 85.1536 312.726 85.7083 313.099C86.2629 313.462 86.6576 313.937 86.8923 314.523C87.1376 315.099 87.2603 315.713 87.2603 316.363C87.2603 317.131 87.1163 317.819 86.8283 318.427C86.5403 319.035 86.0976 319.515 85.5003 319.867C84.9136 320.219 84.1829 320.395 83.3083 320.395C82.1883 320.395 81.2816 320.107 80.5883 319.531C79.8949 318.955 79.4736 318.187 79.3243 317.227H80.7483C80.8869 317.835 81.1803 318.31 81.6283 318.651C82.0763 318.993 82.6416 319.163 83.3243 319.163C84.1669 319.163 84.8016 318.913 85.2283 318.411C85.6549 317.899 85.8683 317.227 85.8683 316.395C85.8683 315.563 85.6549 314.923 85.2283 314.475C84.8016 314.017 84.1723 313.787 83.3403 313.787C82.7749 313.787 82.2789 313.926 81.8523 314.203C81.4363 314.47 81.1323 314.838 80.9403 315.307H79.5643V308.779H86.5243V310.059ZM89.1951 314.459C89.1951 312.625 89.4938 311.195 90.0911 310.171C90.6885 309.137 91.7338 308.619 93.2271 308.619C94.7098 308.619 95.7498 309.137 96.3471 310.171C96.9445 311.195 97.2431 312.625 97.2431 314.459C97.2431 316.326 96.9445 317.777 96.3471 318.811C95.7498 319.846 94.7098 320.363 93.2271 320.363C91.7338 320.363 90.6885 319.846 90.0911 318.811C89.4938 317.777 89.1951 316.326 89.1951 314.459ZM95.8031 314.459C95.8031 313.531 95.7391 312.747 95.6111 312.107C95.4938 311.457 95.2431 310.934 94.8591 310.539C94.4858 310.145 93.9418 309.947 93.2271 309.947C92.5018 309.947 91.9471 310.145 91.5631 310.539C91.1898 310.934 90.9391 311.457 90.8111 312.107C90.6938 312.747 90.6351 313.531 90.6351 314.459C90.6351 315.419 90.6938 316.225 90.8111 316.875C90.9391 317.526 91.1898 318.049 91.5631 318.443C91.9471 318.838 92.5018 319.035 93.2271 319.035C93.9418 319.035 94.4858 318.838 94.8591 318.443C95.2431 318.049 95.4938 317.526 95.6111 316.875C95.7391 316.225 95.8031 315.419 95.8031 314.459ZM99.242 314.459C99.242 312.625 99.5407 311.195 100.138 310.171C100.735 309.137 101.781 308.619 103.274 308.619C104.757 308.619 105.797 309.137 106.394 310.171C106.991 311.195 107.29 312.625 107.29 314.459C107.29 316.326 106.991 317.777 106.394 318.811C105.797 319.846 104.757 320.363 103.274 320.363C101.781 320.363 100.735 319.846 100.138 318.811C99.5407 317.777 99.242 316.326 99.242 314.459ZM105.85 314.459C105.85 313.531 105.786 312.747 105.658 312.107C105.541 311.457 105.29 310.934 104.906 310.539C104.533 310.145 103.989 309.947 103.274 309.947C102.549 309.947 101.994 310.145 101.61 310.539C101.237 310.934 100.986 311.457 100.858 312.107C100.741 312.747 100.682 313.531 100.682 314.459C100.682 315.419 100.741 316.225 100.858 316.875C100.986 317.526 101.237 318.049 101.61 318.443C101.994 318.838 102.549 319.035 103.274 319.035C103.989 319.035 104.533 318.838 104.906 318.443C105.29 318.049 105.541 317.526 105.658 316.875C105.786 316.225 105.85 315.419 105.85 314.459ZM111.033 318.347L109.241 322.651H108.265L109.433 318.347H111.033ZM112.461 314.459C112.461 312.625 112.759 311.195 113.357 310.171C113.954 309.137 114.999 308.619 116.493 308.619C117.975 308.619 119.015 309.137 119.613 310.171C120.21 311.195 120.509 312.625 120.509 314.459C120.509 316.326 120.21 317.777 119.613 318.811C119.015 319.846 117.975 320.363 116.493 320.363C114.999 320.363 113.954 319.846 113.357 318.811C112.759 317.777 112.461 316.326 112.461 314.459ZM119.069 314.459C119.069 313.531 119.005 312.747 118.877 312.107C118.759 311.457 118.509 310.934 118.125 310.539C117.751 310.145 117.207 309.947 116.493 309.947C115.767 309.947 115.213 310.145 114.829 310.539C114.455 310.934 114.205 311.457 114.077 312.107C113.959 312.747 113.901 313.531 113.901 314.459C113.901 315.419 113.959 316.225 114.077 316.875C114.205 317.526 114.455 318.049 114.829 318.443C115.213 318.838 115.767 319.035 116.493 319.035C117.207 319.035 117.751 318.838 118.125 318.443C118.509 318.049 118.759 317.526 118.877 316.875C119.005 316.225 119.069 315.419 119.069 314.459ZM122.508 314.459C122.508 312.625 122.806 311.195 123.404 310.171C124.001 309.137 125.046 308.619 126.54 308.619C128.022 308.619 129.062 309.137 129.66 310.171C130.257 311.195 130.556 312.625 130.556 314.459C130.556 316.326 130.257 317.777 129.66 318.811C129.062 319.846 128.022 320.363 126.54 320.363C125.046 320.363 124.001 319.846 123.404 318.811C122.806 317.777 122.508 316.326 122.508 314.459ZM129.116 314.459C129.116 313.531 129.052 312.747 128.924 312.107C128.806 311.457 128.556 310.934 128.172 310.539C127.798 310.145 127.254 309.947 126.54 309.947C125.814 309.947 125.26 310.145 124.876 310.539C124.502 310.934 124.252 311.457 124.124 312.107C124.006 312.747 123.948 313.531 123.948 314.459C123.948 315.419 124.006 316.225 124.124 316.875C124.252 317.526 124.502 318.049 124.876 318.443C125.26 318.838 125.814 319.035 126.54 319.035C127.254 319.035 127.798 318.838 128.172 318.443C128.556 318.049 128.806 317.526 128.924 316.875C129.052 316.225 129.116 315.419 129.116 314.459ZM132.555 314.459C132.555 312.625 132.853 311.195 133.451 310.171C134.048 309.137 135.093 308.619 136.587 308.619C138.069 308.619 139.109 309.137 139.707 310.171C140.304 311.195 140.602 312.625 140.602 314.459C140.602 316.326 140.304 317.777 139.707 318.811C139.109 319.846 138.069 320.363 136.587 320.363C135.093 320.363 134.048 319.846 133.451 318.811C132.853 317.777 132.555 316.326 132.555 314.459ZM139.163 314.459C139.163 313.531 139.099 312.747 138.971 312.107C138.853 311.457 138.603 310.934 138.219 310.539C137.845 310.145 137.301 309.947 136.587 309.947C135.861 309.947 135.307 310.145 134.923 310.539C134.549 310.934 134.299 311.457 134.171 312.107C134.053 312.747 133.995 313.531 133.995 314.459C133.995 315.419 134.053 316.225 134.171 316.875C134.299 317.526 134.549 318.049 134.923 318.443C135.307 318.838 135.861 319.035 136.587 319.035C137.301 319.035 137.845 318.838 138.219 318.443C138.603 318.049 138.853 317.526 138.971 316.875C139.099 316.225 139.163 315.419 139.163 314.459Z" fill="#2E2E32"/>
<path d="M123.408 370.363V366.251H122.16V365.227H123.408V363.915H122.16V362.891H123.408V358.939H125.072L126.592 362.891H128.48V358.939H129.744V362.891H130.992V363.915H129.744V365.227H130.992V366.251H129.744V370.363H128.064L126.544 366.251H124.656V370.363H123.408ZM124.656 365.227H126.16L125.68 363.915H124.624L124.656 365.227ZM128.48 368.107H128.544L128.496 366.251H127.824L128.48 368.107ZM124.624 362.891H125.296L124.624 360.907H124.56L124.624 362.891ZM127.44 365.227H128.512L128.48 363.915H126.96L127.44 365.227ZM132.148 364.459C132.148 362.625 132.447 361.195 133.044 360.171C133.642 359.137 134.687 358.619 136.18 358.619C137.663 358.619 138.703 359.137 139.3 360.171C139.898 361.195 140.196 362.625 140.196 364.459C140.196 366.326 139.898 367.777 139.3 368.811C138.703 369.846 137.663 370.363 136.18 370.363C134.687 370.363 133.642 369.846 133.044 368.811C132.447 367.777 132.148 366.326 132.148 364.459ZM138.756 364.459C138.756 363.531 138.692 362.747 138.564 362.107C138.447 361.457 138.196 360.934 137.812 360.539C137.439 360.145 136.895 359.947 136.18 359.947C135.455 359.947 134.9 360.145 134.516 360.539C134.143 360.934 133.892 361.457 133.764 362.107C133.647 362.747 133.588 363.531 133.588 364.459C133.588 365.419 133.647 366.225 133.764 366.875C133.892 367.526 134.143 368.049 134.516 368.443C134.9 368.838 135.455 369.035 136.18 369.035C136.895 369.035 137.439 368.838 137.812 368.443C138.196 368.049 138.447 367.526 138.564 366.875C138.692 366.225 138.756 365.419 138.756 364.459Z" fill="#2E2E32"/>
<line x1="158" y1="63.3633" x2="1002" y2="63.3633" stroke="white" stroke-width="2"/>
<line x1="158" y1="113.363" x2="1002" y2="113.363" stroke="white" stroke-width="2"/>
<line x1="158" y1="163.363" x2="1002" y2="163.363" stroke="white" stroke-width="2"/>
<line x1="158" y1="213.363" x2="1002" y2="213.363" stroke="white" stroke-width="2"/>
<line x1="158" y1="263.363" x2="1002" y2="263.363" stroke="white" stroke-width="2"/>
<line x1="158" y1="313.363" x2="1002" y2="313.363" stroke="white" stroke-width="2"/>
<line x1="158" y1="363.363" x2="1002" y2="363.363" stroke="#DBDBDB" stroke-width="2"/>
<path d="M171 275.363C171 274.259 171.895 273.363 173 273.363H184C185.105 273.363 186 274.259 186 275.363V363.363H171V275.363Z" fill="#844AF9"/>
<path d="M186 210.363C186 209.259 186.895 208.363 188 208.363H199C200.105 208.363 201 209.259 201 210.363V363.363H186V210.363Z" fill="#FFA500"/>
<path d="M201 308.363C201 307.259 201.895 306.363 203 306.363H214C215.105 306.363 216 307.259 216 308.363V363.363H201V308.363Z" fill="#2970F8"/>
<path d="M189.328 388.163V399.363H187.968V390.323L184.08 396.451H182.912L179.024 390.323V399.363H177.664V388.163H179.152L183.504 394.995L187.84 388.163H189.328ZM196.008 399.587C195.187 399.587 194.462 399.395 193.832 399.011C193.203 398.627 192.712 398.11 192.36 397.459C192.019 396.798 191.848 396.083 191.848 395.315C191.848 394.547 192.019 393.838 192.36 393.187C192.712 392.526 193.203 392.003 193.832 391.619C194.462 391.235 195.187 391.043 196.008 391.043C196.83 391.043 197.555 391.235 198.184 391.619C198.814 392.003 199.299 392.526 199.64 393.187C199.992 393.838 200.168 394.547 200.168 395.315C200.168 396.083 199.992 396.798 199.64 397.459C199.299 398.11 198.814 398.627 198.184 399.011C197.555 399.395 196.83 399.587 196.008 399.587ZM196.008 398.339C196.83 398.339 197.491 398.057 197.992 397.491C198.504 396.926 198.76 396.201 198.76 395.315C198.76 394.43 198.504 393.705 197.992 393.139C197.491 392.574 196.83 392.291 196.008 392.291C195.187 392.291 194.52 392.574 194.008 393.139C193.507 393.705 193.256 394.43 193.256 395.315C193.256 396.201 193.507 396.926 194.008 397.491C194.52 398.057 195.187 398.339 196.008 398.339ZM206.631 391.043C207.549 391.043 208.258 391.315 208.759 391.859C209.261 392.403 209.511 393.177 209.511 394.179V399.363H208.167V394.499C208.167 393.731 208.018 393.171 207.719 392.819C207.421 392.467 206.951 392.291 206.311 392.291C205.586 392.291 204.989 392.499 204.519 392.915C204.05 393.321 203.815 393.865 203.815 394.547V399.363H202.471V391.267H203.815V392.643C204.039 392.131 204.397 391.737 204.887 391.459C205.389 391.182 205.97 391.043 206.631 391.043Z" fill="#2E2E32"/>
<path d="M301.5 355.363C301.5 354.259 302.395 353.363 303.5 353.363H314.5C315.605 353.363 316.5 354.259 316.5 355.363V363.363H301.5V355.363Z" fill="#844AF9"/>
<path d="M316.5 202.363C316.5 201.259 317.395 200.363 318.5 200.363H329.5C330.605 200.363 331.5 201.259 331.5 202.363V363.363H316.5V202.363Z" fill="#FFA500"/>
<path d="M331.5 219.363C331.5 218.259 332.395 217.363 333.5 217.363H344.5C345.605 217.363 346.5 218.259 346.5 219.363V363.363H331.5V219.363Z" fill="#2970F8"/>
<path d="M310.191 389.475H306.447V388.163H315.343V389.475H311.599V399.363H310.191V389.475ZM319.409 399.587C318.715 399.587 318.102 399.454 317.569 399.187C317.046 398.91 316.641 398.526 316.353 398.035C316.065 397.545 315.921 396.979 315.921 396.339V391.267H317.265V396.259C317.265 396.931 317.451 397.449 317.825 397.811C318.198 398.163 318.726 398.339 319.409 398.339C320.091 398.339 320.619 398.163 320.993 397.811C321.366 397.449 321.553 396.931 321.553 396.259V391.267H322.897V396.339C322.897 396.979 322.753 397.545 322.465 398.035C322.177 398.526 321.766 398.91 321.233 399.187C320.71 399.454 320.102 399.587 319.409 399.587ZM332.94 395.011C332.94 395.246 332.924 395.486 332.892 395.731H326.412C326.487 396.542 326.775 397.182 327.276 397.651C327.788 398.11 328.439 398.339 329.228 398.339C330.273 398.339 331.132 397.918 331.804 397.075L332.716 397.843C332.321 398.398 331.82 398.83 331.212 399.139C330.615 399.438 329.943 399.587 329.196 399.587C328.385 399.587 327.665 399.411 327.036 399.059C326.407 398.697 325.916 398.195 325.564 397.555C325.212 396.905 325.036 396.163 325.036 395.331C325.036 394.51 325.207 393.774 325.548 393.123C325.889 392.473 326.364 391.966 326.972 391.603C327.591 391.23 328.295 391.043 329.084 391.043C329.831 391.043 330.497 391.209 331.084 391.539C331.671 391.87 332.124 392.339 332.444 392.947C332.775 393.545 332.94 394.233 332.94 395.011ZM329.084 392.291C328.369 392.291 327.777 392.505 327.308 392.931C326.849 393.347 326.561 393.918 326.444 394.643H331.564C331.5 393.897 331.244 393.321 330.796 392.915C330.359 392.499 329.788 392.291 329.084 392.291ZM338.054 399.587C337.232 399.587 336.502 399.433 335.862 399.123C335.232 398.803 334.758 398.371 334.438 397.827L335.414 397.107C335.702 397.523 336.07 397.838 336.518 398.051C336.976 398.265 337.483 398.371 338.038 398.371C338.614 398.371 339.067 398.259 339.398 398.035C339.728 397.811 339.894 397.513 339.894 397.139C339.894 396.851 339.782 396.617 339.558 396.435C339.344 396.254 338.982 396.105 338.47 395.987L337.19 395.699C336.358 395.507 335.739 395.225 335.334 394.851C334.928 394.478 334.726 394.009 334.726 393.443C334.726 392.729 335.008 392.153 335.574 391.715C336.15 391.267 336.928 391.043 337.91 391.043C338.614 391.043 339.238 391.166 339.782 391.411C340.336 391.646 340.779 391.982 341.11 392.419L340.182 393.219C339.915 392.91 339.579 392.675 339.174 392.515C338.779 392.345 338.331 392.259 337.83 392.259C337.254 392.259 336.816 392.361 336.518 392.563C336.219 392.766 336.07 393.049 336.07 393.411C336.07 393.678 336.176 393.897 336.39 394.067C336.603 394.227 336.982 394.371 337.526 394.499L338.95 394.819C339.75 395.001 340.331 395.278 340.694 395.651C341.056 396.014 341.238 396.478 341.238 397.043C341.238 397.811 340.955 398.43 340.39 398.899C339.824 399.358 339.046 399.587 338.054 399.587Z" fill="#2E2E32"/>
<rect x="424" y="68.3633" width="61" height="351" rx="8" fill="#1E61DC" fill-opacity="0.1"/>
<path d="M432 203.363C432 202.259 432.895 201.363 434 201.363H445C446.105 201.363 447 202.259 447 203.363V363.363H432V203.363Z" fill="#844AF9"/>
<path d="M447 86.3633C447 85.2587 447.895 84.3633 449 84.3633H460C461.105 84.3633 462 85.2587 462 86.3633V363.363H447V86.3633Z" fill="#FFA500"/>
<path d="M462 262.363C462 261.259 462.895 260.363 464 260.363H475C476.105 260.363 477 261.259 477 262.363V363.363H462V262.363Z" fill="#2970F8"/>
<path d="M452.756 388.163L449.284 399.363H447.86L444.868 389.987L441.876 399.363H440.452L436.98 388.163H438.372L441.204 397.411L444.164 388.163H445.572L448.532 397.411L451.364 388.163H452.756ZM461.174 395.011C461.174 395.246 461.158 395.486 461.126 395.731H454.646C454.721 396.542 455.009 397.182 455.51 397.651C456.022 398.11 456.673 398.339 457.462 398.339C458.508 398.339 459.366 397.918 460.038 397.075L460.95 397.843C460.556 398.398 460.054 398.83 459.446 399.139C458.849 399.438 458.177 399.587 457.43 399.587C456.62 399.587 455.9 399.411 455.27 399.059C454.641 398.697 454.15 398.195 453.798 397.555C453.446 396.905 453.27 396.163 453.27 395.331C453.27 394.51 453.441 393.774 453.782 393.123C454.124 392.473 454.598 391.966 455.206 391.603C455.825 391.23 456.529 391.043 457.318 391.043C458.065 391.043 458.732 391.209 459.318 391.539C459.905 391.87 460.358 392.339 460.678 392.947C461.009 393.545 461.174 394.233 461.174 395.011ZM457.318 392.291C456.604 392.291 456.012 392.505 455.542 392.931C455.084 393.347 454.796 393.918 454.678 394.643H459.798C459.734 393.897 459.478 393.321 459.03 392.915C458.593 392.499 458.022 392.291 457.318 392.291ZM471.056 387.651V399.363H469.712V397.875C469.467 398.398 469.072 398.814 468.528 399.123C467.995 399.433 467.387 399.587 466.704 399.587C465.968 399.587 465.307 399.406 464.72 399.043C464.144 398.681 463.691 398.179 463.36 397.539C463.029 396.889 462.864 396.147 462.864 395.315C462.864 394.483 463.029 393.747 463.36 393.107C463.691 392.457 464.144 391.95 464.72 391.587C465.307 391.225 465.968 391.043 466.704 391.043C467.387 391.043 467.995 391.198 468.528 391.507C469.072 391.817 469.467 392.233 469.712 392.755V387.651H471.056ZM467.024 398.339C467.845 398.339 468.507 398.057 469.008 397.491C469.52 396.926 469.776 396.201 469.776 395.315C469.776 394.43 469.52 393.705 469.008 393.139C468.507 392.574 467.845 392.291 467.024 392.291C466.203 392.291 465.536 392.574 465.024 393.139C464.523 393.705 464.272 394.43 464.272 395.315C464.272 396.201 464.523 396.926 465.024 397.491C465.536 398.057 466.203 398.339 467.024 398.339Z" fill="#2E2E32"/>
<path d="M562.5 297.363C562.5 296.259 563.395 295.363 564.5 295.363H575.5C576.605 295.363 577.5 296.259 577.5 297.363V363.363H562.5V297.363Z" fill="#844AF9"/>
<path d="M577.5 310.363C577.5 309.259 578.395 308.363 579.5 308.363H590.5C591.605 308.363 592.5 309.259 592.5 310.363V363.363H577.5V310.363Z" fill="#FFA500"/>
<path d="M567.308 389.475H563.564V388.163H572.46V389.475H568.716V399.363H567.308V389.475ZM578.483 391.043C579.4 391.043 580.109 391.315 580.611 391.859C581.112 392.403 581.363 393.177 581.363 394.179V399.363H580.019V394.499C580.019 393.731 579.869 393.171 579.571 392.819C579.272 392.467 578.803 392.291 578.163 392.291C577.437 392.291 576.84 392.499 576.371 392.915C575.901 393.321 575.667 393.865 575.667 394.547V399.363H574.323V387.651H575.667V392.643C575.891 392.131 576.248 391.737 576.739 391.459C577.24 391.182 577.821 391.043 578.483 391.043ZM587.51 399.587C586.817 399.587 586.204 399.454 585.67 399.187C585.148 398.91 584.742 398.526 584.454 398.035C584.166 397.545 584.022 396.979 584.022 396.339V391.267H585.366V396.259C585.366 396.931 585.553 397.449 585.926 397.811C586.3 398.163 586.828 398.339 587.51 398.339C588.193 398.339 588.721 398.163 589.094 397.811C589.468 397.449 589.654 396.931 589.654 396.259V391.267H590.998V396.339C590.998 396.979 590.854 397.545 590.566 398.035C590.278 398.526 589.868 398.91 589.334 399.187C588.812 399.454 588.204 399.587 587.51 399.587ZM597.521 391.139C597.799 391.139 598.044 391.177 598.257 391.251V392.435C598.023 392.403 597.788 392.387 597.553 392.387C596.764 392.387 596.151 392.622 595.713 393.091C595.276 393.561 595.057 394.27 595.057 395.219V399.363H593.713V391.267H595.057V392.787C595.239 392.265 595.543 391.859 595.969 391.571C596.407 391.283 596.924 391.139 597.521 391.139ZM602.936 399.587C602.115 399.587 601.384 399.433 600.744 399.123C600.115 398.803 599.64 398.371 599.32 397.827L600.296 397.107C600.584 397.523 600.952 397.838 601.4 398.051C601.859 398.265 602.366 398.371 602.92 398.371C603.496 398.371 603.95 398.259 604.28 398.035C604.611 397.811 604.776 397.513 604.776 397.139C604.776 396.851 604.664 396.617 604.44 396.435C604.227 396.254 603.864 396.105 603.352 395.987L602.072 395.699C601.24 395.507 600.622 395.225 600.216 394.851C599.811 394.478 599.608 394.009 599.608 393.443C599.608 392.729 599.891 392.153 600.456 391.715C601.032 391.267 601.811 391.043 602.792 391.043C603.496 391.043 604.12 391.166 604.664 391.411C605.219 391.646 605.662 391.982 605.992 392.419L605.064 393.219C604.798 392.91 604.462 392.675 604.056 392.515C603.662 392.345 603.214 392.259 602.712 392.259C602.136 392.259 601.699 392.361 601.4 392.563C601.102 392.766 600.952 393.049 600.952 393.411C600.952 393.678 601.059 393.897 601.272 394.067C601.486 394.227 601.864 394.371 602.408 394.499L603.832 394.819C604.632 395.001 605.214 395.278 605.576 395.651C605.939 396.014 606.12 396.478 606.12 397.043C606.12 397.811 605.838 398.43 605.272 398.899C604.707 399.358 603.928 399.587 602.936 399.587Z" fill="#2E2E32"/>
<g filter="url(#filter1_d_1_761)">
<rect x="344" y="68.3633" width="221" height="120" rx="4" fill="white" shape-rendering="crispEdges"/>
<path d="M438.348 85.6593L439.596 84.7113C440.088 85.4913 440.964 85.9473 442.008 85.9473C442.956 85.9473 443.472 85.5873 443.472 84.9753C443.472 84.5073 443.16 84.2193 442.308 84.0273L440.952 83.7033C439.368 83.3193 438.576 82.4913 438.576 81.2913C438.576 79.8273 439.788 78.7953 441.792 78.7953C443.292 78.7953 444.516 79.3833 445.056 80.3313L443.82 81.2913C443.328 80.6793 442.644 80.3793 441.768 80.3793C440.856 80.3793 440.376 80.7273 440.376 81.2553C440.376 81.6753 440.688 81.9273 441.588 82.1553L442.98 82.4793C444.504 82.8513 445.272 83.6433 445.272 84.8793C445.272 86.4633 444.048 87.5313 441.96 87.5313C440.268 87.5313 438.936 86.8233 438.348 85.6593ZM450.931 81.2433H452.611V87.3633H450.931V86.4513C450.583 87.1233 449.803 87.5313 448.927 87.5313C447.331 87.5313 446.167 86.1993 446.167 84.3033C446.167 82.4073 447.331 81.0753 448.927 81.0753C449.803 81.0753 450.583 81.4833 450.931 82.1553V81.2433ZM450.967 84.3033C450.967 83.2833 450.379 82.6113 449.431 82.6113C448.483 82.6113 447.895 83.2833 447.895 84.3033C447.895 85.3233 448.483 85.9953 449.431 85.9953C450.379 85.9953 450.967 85.3233 450.967 84.3033ZM454.238 87.3633V78.5793H455.942V87.3633H454.238ZM463.338 84.8073H458.946C459.102 85.6593 459.678 86.0793 460.59 86.0793C461.238 86.0793 461.766 85.8633 462.174 85.4193L463.146 86.4273C462.558 87.1353 461.646 87.5313 460.53 87.5313C458.55 87.5313 457.23 86.2713 457.23 84.3273C457.23 82.4313 458.49 81.0753 460.362 81.0753C462.174 81.0753 463.374 82.3233 463.374 84.2193C463.374 84.3993 463.362 84.6033 463.338 84.8073ZM458.946 83.7033H461.682C461.622 82.9353 461.154 82.5153 460.374 82.5153C459.594 82.5153 459.09 82.9353 458.946 83.7033ZM464.152 86.4393L464.98 85.3233C465.472 85.8033 466.24 86.1153 466.996 86.1153C467.584 86.1153 467.92 85.9233 467.92 85.5993C467.92 85.3233 467.704 85.1433 467.188 85.0353L466.168 84.7953C464.92 84.5073 464.38 83.9193 464.38 83.0553C464.38 81.8673 465.364 81.0753 466.96 81.0753C468.028 81.0753 468.964 81.4353 469.528 82.0113L468.7 83.1393C468.136 82.7193 467.548 82.5033 466.936 82.5033C466.36 82.5033 466.072 82.6953 466.072 82.9953C466.072 83.2353 466.264 83.3913 466.792 83.4993L467.848 83.7513C469.108 84.0393 469.624 84.6033 469.624 85.5033C469.624 86.7513 468.628 87.5313 466.984 87.5313C465.784 87.5313 464.764 87.1233 464.152 86.4393Z" fill="#2E2E32"/>
<line x1="354" y1="99.8633" x2="555" y2="99.8633" stroke="#F8F8F8"/>
<circle cx="359" cy="114.363" r="5" fill="#1E61DC"/>
<path d="M371.12 117.363V109.947H368.312V108.963H374.984V109.947H372.176V117.363H371.12ZM381.661 113.475V117.363H380.653V113.715C380.653 112.563 380.221 112.059 379.261 112.059C378.169 112.059 377.389 112.731 377.389 113.751V117.363H376.381V108.579H377.389V112.323C377.725 111.555 378.505 111.123 379.501 111.123C380.881 111.123 381.661 111.975 381.661 113.475ZM383.595 109.323C383.595 108.927 383.895 108.627 384.291 108.627C384.687 108.627 384.987 108.927 384.987 109.323C384.987 109.719 384.687 110.019 384.291 110.019C383.895 110.019 383.595 109.719 383.595 109.323ZM383.787 117.363V111.291H384.795V117.363H383.787ZM386.387 116.211L387.119 115.671C387.551 116.295 388.259 116.619 389.087 116.619C389.951 116.619 390.479 116.259 390.479 115.695C390.479 115.263 390.179 115.011 389.411 114.831L388.451 114.615C387.203 114.327 386.603 113.775 386.603 112.923C386.603 111.855 387.515 111.123 388.991 111.123C390.047 111.123 390.899 111.495 391.391 112.155L390.695 112.755C390.299 112.287 389.687 112.035 388.931 112.035C388.067 112.035 387.611 112.359 387.611 112.899C387.611 113.295 387.887 113.523 388.703 113.715L389.771 113.955C390.971 114.231 391.487 114.771 391.487 115.623C391.487 116.775 390.587 117.531 389.099 117.531C387.863 117.531 386.867 117.027 386.387 116.211ZM403.384 111.291H404.404L402.412 117.363H401.308L399.676 112.443L398.044 117.363H396.94L394.948 111.291H395.968L397.516 116.127L399.124 111.291H400.228L401.836 116.127L403.384 111.291ZM411.103 114.639H406.243C406.351 115.851 407.167 116.595 408.355 116.595C409.135 116.595 409.783 116.283 410.287 115.647L410.971 116.223C410.383 117.051 409.447 117.531 408.331 117.531C406.495 117.531 405.211 116.223 405.211 114.339C405.211 112.479 406.459 111.123 408.247 111.123C409.939 111.123 411.139 112.335 411.139 114.099C411.139 114.279 411.127 114.459 411.103 114.639ZM406.267 113.823H410.107C410.011 112.707 409.303 112.059 408.247 112.059C407.179 112.059 406.447 112.731 406.267 113.823ZM418.298 114.639H413.438C413.546 115.851 414.362 116.595 415.55 116.595C416.33 116.595 416.978 116.283 417.482 115.647L418.166 116.223C417.578 117.051 416.642 117.531 415.526 117.531C413.69 117.531 412.406 116.223 412.406 114.339C412.406 112.479 413.654 111.123 415.442 111.123C417.134 111.123 418.334 112.335 418.334 114.099C418.334 114.279 418.322 114.459 418.298 114.639ZM413.462 113.823H417.302C417.206 112.707 416.498 112.059 415.442 112.059C414.374 112.059 413.642 112.731 413.462 113.823ZM424.209 117.363L422.013 114.615H421.041V117.363H420.033V108.579H421.041V113.727H422.049L424.161 111.291H425.337L422.841 114.171L425.385 117.363H424.209Z" fill="#818083"/>
<path d="M486.056 118.363V115.279H485.12V114.511H486.056V113.527H485.12V112.759H486.056V109.795H487.304L488.444 112.759H489.86V109.795H490.808V112.759H491.744V113.527H490.808V114.511H491.744V115.279H490.808V118.363H489.548L488.408 115.279H486.992V118.363H486.056ZM486.992 114.511H488.12L487.76 113.527H486.968L486.992 114.511ZM489.86 116.671H489.908L489.872 115.279H489.368L489.86 116.671ZM486.968 112.759H487.472L486.968 111.271H486.92L486.968 112.759ZM489.08 114.511H489.884L489.86 113.527H488.72L489.08 114.511ZM492.479 117.487C493.495 116.671 494.291 116.003 494.867 115.483C495.443 114.955 495.927 114.407 496.319 113.839C496.719 113.263 496.919 112.699 496.919 112.147C496.919 111.627 496.791 111.219 496.535 110.923C496.287 110.619 495.883 110.467 495.323 110.467C494.779 110.467 494.355 110.639 494.051 110.983C493.755 111.319 493.595 111.771 493.571 112.339H492.515C492.547 111.443 492.819 110.751 493.331 110.263C493.843 109.775 494.503 109.531 495.311 109.531C496.135 109.531 496.787 109.759 497.267 110.215C497.755 110.671 497.999 111.299 497.999 112.099C497.999 112.763 497.799 113.411 497.399 114.043C497.007 114.667 496.559 115.219 496.055 115.699C495.551 116.171 494.907 116.723 494.123 117.355H498.251V118.267H492.479V117.487ZM499.382 117.487C500.398 116.671 501.194 116.003 501.77 115.483C502.346 114.955 502.83 114.407 503.222 113.839C503.622 113.263 503.822 112.699 503.822 112.147C503.822 111.627 503.694 111.219 503.438 110.923C503.19 110.619 502.786 110.467 502.226 110.467C501.682 110.467 501.258 110.639 500.954 110.983C500.658 111.319 500.498 111.771 500.474 112.339H499.418C499.45 111.443 499.722 110.751 500.234 110.263C500.746 109.775 501.406 109.531 502.214 109.531C503.038 109.531 503.69 109.759 504.17 110.215C504.658 110.671 504.902 111.299 504.902 112.099C504.902 112.763 504.702 113.411 504.302 114.043C503.91 114.667 503.462 115.219 502.958 115.699C502.454 116.171 501.81 116.723 501.026 117.355H505.154V118.267H499.382V117.487ZM507.724 116.851L506.38 120.079H505.648L506.524 116.851H507.724ZM514.135 110.539L510.799 118.363H509.695L513.079 110.647H508.447V109.711H514.135V110.539ZM520.878 110.635H516.666V113.371C516.85 113.115 517.122 112.907 517.482 112.747C517.842 112.579 518.23 112.495 518.646 112.495C519.31 112.495 519.85 112.635 520.266 112.915C520.682 113.187 520.978 113.543 521.154 113.983C521.338 114.415 521.43 114.875 521.43 115.363C521.43 115.939 521.322 116.455 521.106 116.911C520.89 117.367 520.558 117.727 520.11 117.991C519.67 118.255 519.122 118.387 518.466 118.387C517.626 118.387 516.946 118.171 516.426 117.739C515.906 117.307 515.59 116.731 515.478 116.011H516.546C516.65 116.467 516.87 116.823 517.206 117.079C517.542 117.335 517.966 117.463 518.478 117.463C519.11 117.463 519.586 117.275 519.906 116.899C520.226 116.515 520.386 116.011 520.386 115.387C520.386 114.763 520.226 114.283 519.906 113.947C519.586 113.603 519.114 113.431 518.49 113.431C518.066 113.431 517.694 113.535 517.374 113.743C517.062 113.943 516.834 114.219 516.69 114.571H515.658V109.675H520.878V110.635ZM522.881 113.935C522.881 112.559 523.105 111.487 523.553 110.719C524.001 109.943 524.785 109.555 525.905 109.555C527.017 109.555 527.797 109.943 528.245 110.719C528.693 111.487 528.917 112.559 528.917 113.935C528.917 115.335 528.693 116.423 528.245 117.199C527.797 117.975 527.017 118.363 525.905 118.363C524.785 118.363 524.001 117.975 523.553 117.199C523.105 116.423 522.881 115.335 522.881 113.935ZM527.837 113.935C527.837 113.239 527.789 112.651 527.693 112.171C527.605 111.683 527.417 111.291 527.129 110.995C526.849 110.699 526.441 110.551 525.905 110.551C525.361 110.551 524.945 110.699 524.657 110.995C524.377 111.291 524.189 111.683 524.093 112.171C524.005 112.651 523.961 113.239 523.961 113.935C523.961 114.655 524.005 115.259 524.093 115.747C524.189 116.235 524.377 116.627 524.657 116.923C524.945 117.219 525.361 117.367 525.905 117.367C526.441 117.367 526.849 117.219 527.129 116.923C527.417 116.627 527.605 116.235 527.693 115.747C527.789 115.259 527.837 114.655 527.837 113.935ZM531.724 116.851L530.38 120.079H529.648L530.524 116.851H531.724ZM532.795 113.935C532.795 112.559 533.019 111.487 533.467 110.719C533.915 109.943 534.699 109.555 535.819 109.555C536.931 109.555 537.711 109.943 538.159 110.719C538.607 111.487 538.831 112.559 538.831 113.935C538.831 115.335 538.607 116.423 538.159 117.199C537.711 117.975 536.931 118.363 535.819 118.363C534.699 118.363 533.915 117.975 533.467 117.199C533.019 116.423 532.795 115.335 532.795 113.935ZM537.751 113.935C537.751 113.239 537.703 112.651 537.607 112.171C537.519 111.683 537.331 111.291 537.043 110.995C536.763 110.699 536.355 110.551 535.819 110.551C535.275 110.551 534.859 110.699 534.571 110.995C534.291 111.291 534.103 111.683 534.007 112.171C533.919 112.651 533.875 113.239 533.875 113.935C533.875 114.655 533.919 115.259 534.007 115.747C534.103 116.235 534.291 116.627 534.571 116.923C534.859 117.219 535.275 117.367 535.819 117.367C536.355 117.367 536.763 117.219 537.043 116.923C537.331 116.627 537.519 116.235 537.607 115.747C537.703 115.259 537.751 114.655 537.751 113.935ZM540.33 113.935C540.33 112.559 540.554 111.487 541.002 110.719C541.45 109.943 542.234 109.555 543.354 109.555C544.466 109.555 545.246 109.943 545.694 110.719C546.142 111.487 546.366 112.559 546.366 113.935C546.366 115.335 546.142 116.423 545.694 117.199C545.246 117.975 544.466 118.363 543.354 118.363C542.234 118.363 541.45 117.975 541.002 117.199C540.554 116.423 540.33 115.335 540.33 113.935ZM545.286 113.935C545.286 113.239 545.238 112.651 545.142 112.171C545.054 111.683 544.866 111.291 544.578 110.995C544.298 110.699 543.89 110.551 543.354 110.551C542.81 110.551 542.394 110.699 542.106 110.995C541.826 111.291 541.638 111.683 541.542 112.171C541.454 112.651 541.41 113.239 541.41 113.935C541.41 114.655 541.454 115.259 541.542 115.747C541.638 116.235 541.826 116.627 542.106 116.923C542.394 117.219 542.81 117.367 543.354 117.367C543.89 117.367 544.298 117.219 544.578 116.923C544.866 116.627 545.054 116.235 545.142 115.747C545.238 115.259 545.286 114.655 545.286 113.935ZM547.865 113.935C547.865 112.559 548.089 111.487 548.537 110.719C548.985 109.943 549.769 109.555 550.889 109.555C552.001 109.555 552.781 109.943 553.229 110.719C553.677 111.487 553.901 112.559 553.901 113.935C553.901 115.335 553.677 116.423 553.229 117.199C552.781 117.975 552.001 118.363 550.889 118.363C549.769 118.363 548.985 117.975 548.537 117.199C548.089 116.423 547.865 115.335 547.865 113.935ZM552.821 113.935C552.821 113.239 552.773 112.651 552.677 112.171C552.589 111.683 552.401 111.291 552.113 110.995C551.833 110.699 551.425 110.551 550.889 110.551C550.345 110.551 549.929 110.699 549.641 110.995C549.361 111.291 549.173 111.683 549.077 112.171C548.989 112.651 548.945 113.239 548.945 113.935C548.945 114.655 548.989 115.259 549.077 115.747C549.173 116.235 549.361 116.627 549.641 116.923C549.929 117.219 550.345 117.367 550.889 117.367C551.425 117.367 551.833 117.219 552.113 116.923C552.401 116.627 552.589 116.235 552.677 115.747C552.773 115.259 552.821 114.655 552.821 113.935Z" fill="#2E2E32"/>
<circle cx="359" cy="142.363" r="5" fill="#E8EFFB"/>
<path d="M375.512 139.567C375.512 141.187 374.468 142.159 372.68 142.159H370.304V145.363H369.248V136.963H372.68C374.468 136.963 375.512 137.947 375.512 139.567ZM374.408 139.567C374.408 138.427 373.88 137.935 372.596 137.935H370.304V141.199H372.596C373.88 141.199 374.408 140.707 374.408 139.567ZM380.574 139.279V140.167C380.394 140.143 380.226 140.131 380.046 140.131C378.858 140.131 378.174 140.827 378.174 142.255V145.363H377.166V139.291H378.174V140.431C378.45 139.651 379.122 139.195 380.022 139.195C380.226 139.195 380.418 139.219 380.574 139.279ZM387.173 142.639H382.313C382.421 143.851 383.237 144.595 384.425 144.595C385.205 144.595 385.853 144.283 386.357 143.647L387.041 144.223C386.453 145.051 385.517 145.531 384.401 145.531C382.565 145.531 381.281 144.223 381.281 142.339C381.281 140.479 382.529 139.123 384.317 139.123C386.009 139.123 387.209 140.335 387.209 142.099C387.209 142.279 387.197 142.459 387.173 142.639ZM382.337 141.823H386.177C386.081 140.707 385.373 140.059 384.317 140.059C383.249 140.059 382.517 140.731 382.337 141.823ZM392.812 139.291H393.892L391.42 145.363H390.34L387.868 139.291H388.948L390.88 144.259L392.812 139.291ZM395.009 137.323C395.009 136.927 395.309 136.627 395.705 136.627C396.101 136.627 396.401 136.927 396.401 137.323C396.401 137.719 396.101 138.019 395.705 138.019C395.309 138.019 395.009 137.719 395.009 137.323ZM395.201 145.363V139.291H396.209V145.363H395.201ZM397.945 142.327C397.921 140.611 399.229 139.087 401.065 139.123C402.901 139.087 404.209 140.611 404.185 142.327C404.209 144.043 402.901 145.567 401.065 145.531C399.229 145.567 397.921 144.043 397.945 142.327ZM403.129 142.327C403.129 141.667 402.937 141.115 402.553 140.695C402.181 140.275 401.677 140.059 401.065 140.059C400.453 140.059 399.949 140.275 399.565 140.695C399.193 141.115 399.001 141.667 399.001 142.327C399.001 142.987 399.193 143.539 399.565 143.959C399.949 144.379 400.453 144.595 401.065 144.595C401.677 144.595 402.181 144.379 402.553 143.959C402.937 143.539 403.129 142.987 403.129 142.327ZM405.792 143.095V139.291H406.8V143.035C406.8 144.043 407.388 144.595 408.408 144.595C409.428 144.595 410.016 144.043 410.016 143.035V139.291H411.024V143.095C411.024 144.535 409.98 145.531 408.408 145.531C406.836 145.531 405.792 144.535 405.792 143.095ZM412.484 144.211L413.216 143.671C413.648 144.295 414.356 144.619 415.184 144.619C416.048 144.619 416.576 144.259 416.576 143.695C416.576 143.263 416.276 143.011 415.508 142.831L414.548 142.615C413.3 142.327 412.7 141.775 412.7 140.923C412.7 139.855 413.612 139.123 415.088 139.123C416.144 139.123 416.996 139.495 417.488 140.155L416.792 140.755C416.396 140.287 415.784 140.035 415.028 140.035C414.164 140.035 413.708 140.359 413.708 140.899C413.708 141.295 413.984 141.523 414.8 141.715L415.868 141.955C417.068 142.231 417.584 142.771 417.584 143.623C417.584 144.775 416.684 145.531 415.196 145.531C413.96 145.531 412.964 145.027 412.484 144.211ZM429.481 139.291H430.501L428.509 145.363H427.405L425.773 140.443L424.141 145.363H423.037L421.045 139.291H422.065L423.613 144.127L425.221 139.291H426.325L427.933 144.127L429.481 139.291ZM437.2 142.639H432.34C432.448 143.851 433.264 144.595 434.452 144.595C435.232 144.595 435.88 144.283 436.384 143.647L437.068 144.223C436.48 145.051 435.544 145.531 434.428 145.531C432.592 145.531 431.308 144.223 431.308 142.339C431.308 140.479 432.556 139.123 434.344 139.123C436.036 139.123 437.236 140.335 437.236 142.099C437.236 142.279 437.224 142.459 437.2 142.639ZM432.364 141.823H436.204C436.108 140.707 435.4 140.059 434.344 140.059C433.276 140.059 432.544 140.731 432.364 141.823ZM444.395 142.639H439.535C439.643 143.851 440.459 144.595 441.647 144.595C442.427 144.595 443.075 144.283 443.579 143.647L444.263 144.223C443.675 145.051 442.739 145.531 441.623 145.531C439.787 145.531 438.503 144.223 438.503 142.339C438.503 140.479 439.751 139.123 441.539 139.123C443.231 139.123 444.431 140.335 444.431 142.099C444.431 142.279 444.419 142.459 444.395 142.639ZM439.559 141.823H443.399C443.303 140.707 442.595 140.059 441.539 140.059C440.471 140.059 439.739 140.731 439.559 141.823ZM450.307 145.363L448.111 142.615H447.139V145.363H446.131V136.579H447.139V141.727H448.147L450.259 139.291H451.435L448.939 142.171L451.483 145.363H450.307Z" fill="#818083"/>
<path d="M491.056 146.363V143.279H490.12V142.511H491.056V141.527H490.12V140.759H491.056V137.795H492.304L493.444 140.759H494.86V137.795H495.808V140.759H496.744V141.527H495.808V142.511H496.744V143.279H495.808V146.363H494.548L493.408 143.279H491.992V146.363H491.056ZM491.992 142.511H493.12L492.76 141.527H491.968L491.992 142.511ZM494.86 144.671H494.908L494.872 143.279H494.368L494.86 144.671ZM491.968 140.759H492.472L491.968 139.271H491.92L491.968 140.759ZM494.08 142.511H494.884L494.86 141.527H493.72L494.08 142.511ZM499.195 141.851C498.747 141.675 498.403 141.419 498.163 141.083C497.923 140.747 497.803 140.339 497.803 139.859C497.803 139.427 497.911 139.039 498.127 138.695C498.343 138.343 498.663 138.067 499.087 137.867C499.519 137.659 500.039 137.555 500.647 137.555C501.255 137.555 501.771 137.659 502.195 137.867C502.627 138.067 502.951 138.343 503.167 138.695C503.391 139.039 503.503 139.427 503.503 139.859C503.503 140.323 503.379 140.731 503.131 141.083C502.883 141.427 502.543 141.683 502.111 141.851C502.607 142.003 502.999 142.271 503.287 142.655C503.583 143.031 503.731 143.487 503.731 144.023C503.731 144.543 503.603 144.999 503.347 145.391C503.091 145.775 502.727 146.075 502.255 146.291C501.791 146.499 501.255 146.603 500.647 146.603C500.039 146.603 499.503 146.499 499.039 146.291C498.583 146.075 498.227 145.775 497.971 145.391C497.715 144.999 497.587 144.543 497.587 144.023C497.587 143.487 497.731 143.027 498.019 142.643C498.307 142.259 498.699 141.995 499.195 141.851ZM502.447 139.991C502.447 139.503 502.287 139.127 501.967 138.863C501.647 138.599 501.207 138.467 500.647 138.467C500.095 138.467 499.659 138.599 499.339 138.863C499.019 139.127 498.859 139.507 498.859 140.003C498.859 140.451 499.023 140.811 499.351 141.083C499.687 141.355 500.119 141.491 500.647 141.491C501.183 141.491 501.615 141.355 501.943 141.083C502.279 140.803 502.447 140.439 502.447 139.991ZM500.647 142.331C500.055 142.331 499.571 142.471 499.195 142.751C498.819 143.023 498.631 143.435 498.631 143.987C498.631 144.499 498.811 144.911 499.171 145.223C499.539 145.535 500.031 145.691 500.647 145.691C501.263 145.691 501.751 145.535 502.111 145.223C502.471 144.911 502.651 144.499 502.651 143.987C502.651 143.451 502.467 143.043 502.099 142.763C501.731 142.475 501.247 142.331 500.647 142.331ZM506.49 144.851L505.146 148.079H504.413L505.29 144.851H506.49ZM513.092 138.635H508.88V141.371C509.064 141.115 509.336 140.907 509.696 140.747C510.056 140.579 510.444 140.495 510.86 140.495C511.524 140.495 512.064 140.635 512.48 140.915C512.896 141.187 513.192 141.543 513.368 141.983C513.552 142.415 513.644 142.875 513.644 143.363C513.644 143.939 513.536 144.455 513.32 144.911C513.104 145.367 512.772 145.727 512.324 145.991C511.884 146.255 511.336 146.387 510.68 146.387C509.84 146.387 509.16 146.171 508.64 145.739C508.12 145.307 507.804 144.731 507.692 144.011H508.76C508.864 144.467 509.084 144.823 509.42 145.079C509.756 145.335 510.18 145.463 510.692 145.463C511.324 145.463 511.8 145.275 512.12 144.899C512.44 144.515 512.6 144.011 512.6 143.387C512.6 142.763 512.44 142.283 512.12 141.947C511.8 141.603 511.328 141.431 510.704 141.431C510.28 141.431 509.908 141.535 509.588 141.743C509.276 141.943 509.048 142.219 508.904 142.571H507.872V137.675H513.092V138.635ZM515.096 141.935C515.096 140.559 515.32 139.487 515.768 138.719C516.216 137.943 517 137.555 518.12 137.555C519.232 137.555 520.012 137.943 520.46 138.719C520.908 139.487 521.132 140.559 521.132 141.935C521.132 143.335 520.908 144.423 520.46 145.199C520.012 145.975 519.232 146.363 518.12 146.363C517 146.363 516.216 145.975 515.768 145.199C515.32 144.423 515.096 143.335 515.096 141.935ZM520.052 141.935C520.052 141.239 520.004 140.651 519.908 140.171C519.82 139.683 519.632 139.291 519.344 138.995C519.064 138.699 518.656 138.551 518.12 138.551C517.576 138.551 517.16 138.699 516.872 138.995C516.592 139.291 516.404 139.683 516.308 140.171C516.22 140.651 516.176 141.239 516.176 141.935C516.176 142.655 516.22 143.259 516.308 143.747C516.404 144.235 516.592 144.627 516.872 144.923C517.16 145.219 517.576 145.367 518.12 145.367C518.656 145.367 519.064 145.219 519.344 144.923C519.632 144.627 519.82 144.235 519.908 143.747C520.004 143.259 520.052 142.655 520.052 141.935ZM522.631 141.935C522.631 140.559 522.855 139.487 523.303 138.719C523.751 137.943 524.535 137.555 525.655 137.555C526.767 137.555 527.547 137.943 527.995 138.719C528.443 139.487 528.667 140.559 528.667 141.935C528.667 143.335 528.443 144.423 527.995 145.199C527.547 145.975 526.767 146.363 525.655 146.363C524.535 146.363 523.751 145.975 523.303 145.199C522.855 144.423 522.631 143.335 522.631 141.935ZM527.587 141.935C527.587 141.239 527.539 140.651 527.443 140.171C527.355 139.683 527.167 139.291 526.879 138.995C526.599 138.699 526.191 138.551 525.655 138.551C525.111 138.551 524.695 138.699 524.407 138.995C524.127 139.291 523.939 139.683 523.843 140.171C523.755 140.651 523.711 141.239 523.711 141.935C523.711 142.655 523.755 143.259 523.843 143.747C523.939 144.235 524.127 144.627 524.407 144.923C524.695 145.219 525.111 145.367 525.655 145.367C526.191 145.367 526.599 145.219 526.879 144.923C527.167 144.627 527.355 144.235 527.443 143.747C527.539 143.259 527.587 142.655 527.587 141.935ZM531.474 144.851L530.13 148.079H529.398L530.274 144.851H531.474ZM532.281 144.431V143.603L536.493 137.771H537.801V143.483H539.001V144.431H537.801V146.363H536.721V144.431H532.281ZM536.769 138.911L533.541 143.483H536.769V138.911ZM540.092 141.935C540.092 140.559 540.316 139.487 540.764 138.719C541.212 137.943 541.996 137.555 543.116 137.555C544.228 137.555 545.008 137.943 545.456 138.719C545.904 139.487 546.128 140.559 546.128 141.935C546.128 143.335 545.904 144.423 545.456 145.199C545.008 145.975 544.228 146.363 543.116 146.363C541.996 146.363 541.212 145.975 540.764 145.199C540.316 144.423 540.092 143.335 540.092 141.935ZM545.048 141.935C545.048 141.239 545 140.651 544.904 140.171C544.816 139.683 544.628 139.291 544.34 138.995C544.06 138.699 543.652 138.551 543.116 138.551C542.572 138.551 542.156 138.699 541.868 138.995C541.588 139.291 541.4 139.683 541.304 140.171C541.216 140.651 541.172 141.239 541.172 141.935C541.172 142.655 541.216 143.259 541.304 143.747C541.4 144.235 541.588 144.627 541.868 144.923C542.156 145.219 542.572 145.367 543.116 145.367C543.652 145.367 544.06 145.219 544.34 144.923C544.628 144.627 544.816 144.235 544.904 143.747C545 143.259 545.048 142.655 545.048 141.935ZM547.627 141.935C547.627 140.559 547.851 139.487 548.299 138.719C548.747 137.943 549.531 137.555 550.651 137.555C551.763 137.555 552.543 137.943 552.991 138.719C553.439 139.487 553.663 140.559 553.663 141.935C553.663 143.335 553.439 144.423 552.991 145.199C552.543 145.975 551.763 146.363 550.651 146.363C549.531 146.363 548.747 145.975 548.299 145.199C547.851 144.423 547.627 143.335 547.627 141.935ZM552.583 141.935C552.583 141.239 552.535 140.651 552.439 140.171C552.351 139.683 552.163 139.291 551.875 138.995C551.595 138.699 551.187 138.551 550.651 138.551C550.107 138.551 549.691 138.699 549.403 138.995C549.123 139.291 548.935 139.683 548.839 140.171C548.751 140.651 548.707 141.239 548.707 141.935C548.707 142.655 548.751 143.259 548.839 143.747C548.935 144.235 549.123 144.627 549.403 144.923C549.691 145.219 550.107 145.367 550.651 145.367C551.187 145.367 551.595 145.219 551.875 144.923C552.163 144.627 552.351 144.235 552.439 143.747C552.535 143.259 552.583 142.655 552.583 141.935Z" fill="#2E2E32"/>
<line x1="354" y1="155.863" x2="555" y2="155.863" stroke="#F8F8F8"/>
<path d="M362.568 171.163C362.568 173.767 360.876 175.363 358.44 175.363H355.248V166.963H358.44C360.876 166.963 362.568 168.559 362.568 171.163ZM361.464 171.163C361.464 169.111 360.324 167.947 358.44 167.947H356.304V174.379H358.44C360.324 174.379 361.464 173.215 361.464 171.163ZM364.24 167.323C364.24 166.927 364.54 166.627 364.936 166.627C365.332 166.627 365.632 166.927 365.632 167.323C365.632 167.719 365.332 168.019 364.936 168.019C364.54 168.019 364.24 167.719 364.24 167.323ZM364.432 175.363V169.291H365.44V175.363H364.432ZM368.087 175.363V170.155H366.839V169.291H368.087V168.367C368.087 167.059 368.687 166.471 369.971 166.471C370.271 166.471 370.583 166.507 370.895 166.579V167.431C370.607 167.371 370.343 167.347 370.103 167.347C369.395 167.347 369.095 167.659 369.095 168.391V169.291H370.871V170.155H369.095V175.363H368.087ZM372.693 175.363V170.155H371.445V169.291H372.693V168.367C372.693 167.059 373.293 166.471 374.577 166.471C374.877 166.471 375.189 166.507 375.501 166.579V167.431C375.213 167.371 374.949 167.347 374.709 167.347C374.001 167.347 373.701 167.659 373.701 168.391V169.291H375.477V170.155H373.701V175.363H372.693ZM382.067 172.639H377.207C377.315 173.851 378.131 174.595 379.319 174.595C380.099 174.595 380.747 174.283 381.251 173.647L381.935 174.223C381.347 175.051 380.411 175.531 379.295 175.531C377.459 175.531 376.175 174.223 376.175 172.339C376.175 170.479 377.423 169.123 379.211 169.123C380.903 169.123 382.103 170.335 382.103 172.099C382.103 172.279 382.091 172.459 382.067 172.639ZM377.231 171.823H381.071C380.975 170.707 380.267 170.059 379.211 170.059C378.143 170.059 377.411 170.731 377.231 171.823ZM387.211 169.279V170.167C387.031 170.143 386.863 170.131 386.683 170.131C385.495 170.131 384.811 170.827 384.811 172.255V175.363H383.803V169.291H384.811V170.431C385.087 169.651 385.759 169.195 386.659 169.195C386.863 169.195 387.055 169.219 387.211 169.279ZM393.81 172.639H388.95C389.058 173.851 389.874 174.595 391.062 174.595C391.842 174.595 392.49 174.283 392.994 173.647L393.678 174.223C393.09 175.051 392.154 175.531 391.038 175.531C389.202 175.531 387.918 174.223 387.918 172.339C387.918 170.479 389.166 169.123 390.954 169.123C392.646 169.123 393.846 170.335 393.846 172.099C393.846 172.279 393.834 172.459 393.81 172.639ZM388.974 171.823H392.814C392.718 170.707 392.01 170.059 390.954 170.059C389.886 170.059 389.154 170.731 388.974 171.823ZM400.825 171.475V175.363H399.817V171.715C399.817 170.563 399.385 170.059 398.425 170.059C397.333 170.059 396.553 170.731 396.553 171.751V175.363H395.545V169.291H396.553V170.323C396.889 169.555 397.669 169.123 398.665 169.123C400.045 169.123 400.825 169.975 400.825 171.475ZM402.507 172.327C402.507 170.479 403.779 169.123 405.627 169.123C406.743 169.123 407.655 169.591 408.171 170.443L407.379 170.995C407.007 170.383 406.395 170.059 405.639 170.059C405.027 170.059 404.523 170.263 404.139 170.683C403.755 171.103 403.563 171.643 403.563 172.327C403.563 173.011 403.755 173.551 404.139 173.971C404.523 174.391 405.027 174.595 405.639 174.595C406.395 174.595 407.007 174.271 407.379 173.659L408.171 174.211C407.655 175.063 406.743 175.531 405.627 175.531C403.779 175.531 402.507 174.175 402.507 172.327ZM415.114 172.639H410.254C410.362 173.851 411.178 174.595 412.366 174.595C413.146 174.595 413.794 174.283 414.298 173.647L414.982 174.223C414.394 175.051 413.458 175.531 412.342 175.531C410.506 175.531 409.222 174.223 409.222 172.339C409.222 170.479 410.47 169.123 412.258 169.123C413.95 169.123 415.15 170.335 415.15 172.099C415.15 172.279 415.138 172.459 415.114 172.639ZM410.278 171.823H414.118C414.022 170.707 413.314 170.059 412.258 170.059C411.19 170.059 410.458 170.731 410.278 171.823Z" fill="#2E2E32"/>
<path d="M488.056 176.363V173.279H487.12V172.511H488.056V171.527H487.12V170.759H488.056V167.795H489.304L490.444 170.759H491.86V167.795H492.808V170.759H493.744V171.527H492.808V172.511H493.744V173.279H492.808V176.363H491.548L490.408 173.279H488.992V176.363H488.056ZM488.992 172.511H490.12L489.76 171.527H488.968L488.992 172.511ZM491.86 174.671H491.908L491.872 173.279H491.368L491.86 174.671ZM488.968 170.759H489.472L488.968 169.271H488.92L488.968 170.759ZM491.08 172.511H491.884L491.86 171.527H490.72L491.08 172.511ZM494.323 168.683V167.687H496.579V176.363H495.475V168.683H494.323ZM498.191 174.431V173.603L502.403 167.771H503.711V173.483H504.911V174.431H503.711V176.363H502.631V174.431H498.191ZM502.679 168.911L499.451 173.483H502.679V168.911ZM507.31 174.851L505.966 178.079H505.234L506.11 174.851H507.31ZM508.249 175.487C509.265 174.671 510.061 174.003 510.637 173.483C511.213 172.955 511.697 172.407 512.089 171.839C512.489 171.263 512.689 170.699 512.689 170.147C512.689 169.627 512.561 169.219 512.305 168.923C512.057 168.619 511.653 168.467 511.093 168.467C510.549 168.467 510.125 168.639 509.821 168.983C509.525 169.319 509.365 169.771 509.341 170.339H508.285C508.317 169.443 508.589 168.751 509.101 168.263C509.613 167.775 510.273 167.531 511.081 167.531C511.905 167.531 512.557 167.759 513.037 168.215C513.525 168.671 513.769 169.299 513.769 170.099C513.769 170.763 513.569 171.411 513.169 172.043C512.777 172.667 512.329 173.219 511.825 173.699C511.321 174.171 510.677 174.723 509.893 175.355H514.021V176.267H508.249V175.487ZM515.019 174.431V173.603L519.231 167.771H520.539V173.483H521.739V174.431H520.539V176.363H519.459V174.431H515.019ZM519.507 168.911L516.279 173.483H519.507V168.911ZM524.234 174.035C524.314 174.491 524.498 174.843 524.786 175.091C525.082 175.339 525.478 175.463 525.974 175.463C526.638 175.463 527.126 175.203 527.438 174.683C527.758 174.163 527.91 173.287 527.894 172.055C527.726 172.415 527.446 172.699 527.054 172.907C526.662 173.107 526.226 173.207 525.746 173.207C525.21 173.207 524.73 173.099 524.306 172.883C523.89 172.659 523.562 172.335 523.322 171.911C523.082 171.487 522.962 170.975 522.962 170.375C522.962 169.519 523.21 168.831 523.706 168.311C524.202 167.783 524.906 167.519 525.818 167.519C526.938 167.519 527.722 167.883 528.17 168.611C528.626 169.339 528.854 170.423 528.854 171.863C528.854 172.871 528.762 173.703 528.578 174.359C528.402 175.015 528.098 175.515 527.666 175.859C527.242 176.203 526.658 176.375 525.914 176.375C525.098 176.375 524.462 176.155 524.006 175.715C523.55 175.275 523.29 174.715 523.226 174.035H524.234ZM525.926 172.283C526.462 172.283 526.902 172.119 527.246 171.791C527.59 171.455 527.762 171.003 527.762 170.435C527.762 169.835 527.594 169.351 527.258 168.983C526.922 168.615 526.45 168.431 525.842 168.431C525.282 168.431 524.834 168.607 524.498 168.959C524.17 169.311 524.006 169.775 524.006 170.351C524.006 170.935 524.17 171.403 524.498 171.755C524.826 172.107 525.302 172.283 525.926 172.283ZM531.697 174.851L530.353 178.079H529.621L530.497 174.851H531.697ZM537.603 169.751C537.427 168.863 536.879 168.419 535.959 168.419C535.247 168.419 534.715 168.695 534.363 169.247C534.011 169.791 533.839 170.691 533.847 171.947C534.031 171.531 534.335 171.207 534.759 170.975C535.191 170.735 535.671 170.615 536.199 170.615C537.023 170.615 537.679 170.871 538.167 171.383C538.663 171.895 538.911 172.603 538.911 173.507C538.911 174.051 538.803 174.539 538.587 174.971C538.379 175.403 538.059 175.747 537.627 176.003C537.203 176.259 536.687 176.387 536.079 176.387C535.255 176.387 534.611 176.203 534.147 175.835C533.683 175.467 533.359 174.959 533.175 174.311C532.991 173.663 532.899 172.863 532.899 171.911C532.899 168.975 533.923 167.507 535.971 167.507C536.755 167.507 537.371 167.719 537.819 168.143C538.267 168.567 538.531 169.103 538.611 169.751H537.603ZM535.971 171.539C535.627 171.539 535.303 171.611 534.999 171.755C534.695 171.891 534.447 172.103 534.255 172.391C534.071 172.671 533.979 173.015 533.979 173.423C533.979 174.031 534.155 174.527 534.507 174.911C534.859 175.287 535.363 175.475 536.019 175.475C536.579 175.475 537.023 175.303 537.351 174.959C537.687 174.607 537.855 174.135 537.855 173.543C537.855 172.919 537.695 172.431 537.375 172.079C537.055 171.719 536.587 171.539 535.971 171.539ZM540.385 171.935C540.385 170.559 540.609 169.487 541.057 168.719C541.505 167.943 542.289 167.555 543.409 167.555C544.521 167.555 545.301 167.943 545.749 168.719C546.197 169.487 546.421 170.559 546.421 171.935C546.421 173.335 546.197 174.423 545.749 175.199C545.301 175.975 544.521 176.363 543.409 176.363C542.289 176.363 541.505 175.975 541.057 175.199C540.609 174.423 540.385 173.335 540.385 171.935ZM545.341 171.935C545.341 171.239 545.293 170.651 545.197 170.171C545.109 169.683 544.921 169.291 544.633 168.995C544.353 168.699 543.945 168.551 543.409 168.551C542.865 168.551 542.449 168.699 542.161 168.995C541.881 169.291 541.693 169.683 541.597 170.171C541.509 170.651 541.465 171.239 541.465 171.935C541.465 172.655 541.509 173.259 541.597 173.747C541.693 174.235 541.881 174.627 542.161 174.923C542.449 175.219 542.865 175.367 543.409 175.367C543.945 175.367 544.353 175.219 544.633 174.923C544.921 174.627 545.109 174.235 545.197 173.747C545.293 173.259 545.341 172.655 545.341 171.935ZM547.92 171.935C547.92 170.559 548.144 169.487 548.592 168.719C549.04 167.943 549.824 167.555 550.944 167.555C552.056 167.555 552.836 167.943 553.284 168.719C553.732 169.487 553.956 170.559 553.956 171.935C553.956 173.335 553.732 174.423 553.284 175.199C552.836 175.975 552.056 176.363 550.944 176.363C549.824 176.363 549.04 175.975 548.592 175.199C548.144 174.423 547.92 173.335 547.92 171.935ZM552.876 171.935C552.876 171.239 552.828 170.651 552.732 170.171C552.644 169.683 552.456 169.291 552.168 168.995C551.888 168.699 551.48 168.551 550.944 168.551C550.4 168.551 549.984 168.699 549.696 168.995C549.416 169.291 549.228 169.683 549.132 170.171C549.044 170.651 549 171.239 549 171.935C549 172.655 549.044 173.259 549.132 173.747C549.228 174.235 549.416 174.627 549.696 174.923C549.984 175.219 550.4 175.367 550.944 175.367C551.48 175.367 551.888 175.219 552.168 174.923C552.456 174.627 552.644 174.235 552.732 173.747C552.828 173.259 552.876 172.655 552.876 171.935Z" fill="#2E2E32"/>
</g>
</g>
</g>
<defs>
<filter id="filter0_d_1_761" x="-48" y="-47.6367" width="1498" height="611" filterUnits="userSpaceOnUse" color-interpolation-filters="sRGB">
<feFlood flood-opacity="0" result="BackgroundImageFix"/>
<feColorMatrix in="SourceAlpha" type="matrix" values="0 0 0 0 0 0 0 0 0 0 0 0 0 0 0 0 0 0 127 0" result="hardAlpha"/>
<feOffset dx="20" dy="20"/>
<feGaussianBlur stdDeviation="50"/>
<feComposite in2="hardAlpha" operator="out"/>
<feColorMatrix type="matrix" values="0 0 0 0 0.133333 0 0 0 0 0.172549 0 0 0 0 0.231373 0 0 0 0.2 0"/>
<feBlend mode="normal" in2="BackgroundImageFix" result="effect1_dropShadow_1_761"/>
<feBlend mode="normal" in="SourceGraphic" in2="effect1_dropShadow_1_761" result="shape"/>
</filter>
<filter id="filter1_d_1_761" x="324" y="58.3633" width="261" height="160" filterUnits="userSpaceOnUse" color-interpolation-filters="sRGB">
<feFlood flood-opacity="0" result="BackgroundImageFix"/>
<feColorMatrix in="SourceAlpha" type="matrix" values="0 0 0 0 0 0 0 0 0 0 0 0 0 0 0 0 0 0 127 0" result="hardAlpha"/>
<feOffset dy="10"/>
<feGaussianBlur stdDeviation="10"/>
<feComposite in2="hardAlpha" operator="out"/>
<feColorMatrix type="matrix" values="0 0 0 0 0 0 0 0 0 0 0 0 0 0 0 0 0 0 0.1 0"/>
<feBlend mode="normal" in2="BackgroundImageFix" result="effect1_dropShadow_1_761"/>
<feBlend mode="normal" in="SourceGraphic" in2="effect1_dropShadow_1_761" result="shape"/>
</filter>
<clipPath id="clip0_1_761">
<rect width="584" height="475" fill="white" transform="translate(0 0.363281)"/>
</clipPath>
</defs>
</svg>
